<svg id="vector" xmlns="http://www.w3.org/2000/svg" width="128" height="128" viewBox="0 0 1024 1024"><path fill="#70A1F4" d="M974,302.1a200.1,200.1 0,0 1,-334.7 147.9,204.2 204.2,0 0,1 -25.2,-27.6 200.1,200.1 0,1 1,359.9 -120.3z" id="path_0"/><path fill="#1677FF" d="M501.2,637.4s-63.3,77.2 -138.2,77.2 -90.4,-36.7 -90.4,-63 15.4,-55 79.1,-59.2 149.6,45.1 149.6,45.1z" id="path_1"/><path fill="#1677FF" d="M924.5,706.3a24.3,24.3 0,0 1,-24.3 24.3h-21.2L581.6,612.4a305.9,305.9 0,0 0,28.1 -60.1c14.4,-39.7 16.5,-61.7 16.5,-61.7l-114.2,-0.9V450.6l127.2,-0.9a204.2,204.2 0,0 1,-25.2 -27.6H512V359.4H444.3v62.8H315.3v27.5l128.9,-0.9v41.8h-103.4v22h212.9a205.5,205.5 0,0 1,-10.2 39.7c-8.1,22 -16.6,41.4 -16.6,41.4s-100.2,-35 -153.2,-35 -116.7,21.2 -122.9,82.5 29.8,94.7 80.6,107 97.6,0 138.2,-20.1 80.8,-65.4 80.8,-65.4l179.2,89.4a24.3,24.3 0,0 0,24.1 27h48.6a24.3,24.3 0,0 1,24.1 21.2,20.9 20.9,0 0,1 0,3.1 24.3,24.3 0,0 1,-24.3 24.3h-64.5A388.8,388.8 0,0 1,122.9 390.5h-48.6a24.3,24.3 0,0 1,0 -48.6h97.3a24.3,24.3 0,0 0,6.8 -47.6l0.8,-1H122.9a24.3,24.3 0,1 1,0 -48.6h101.6a388.6,388.6 0,0 1,644.7 233.1,391.3 391.3,0 0,1 3.9,55.7 387.1,387.1 0,0 1,-29.3 148.5h56.3a24.3,24.3 0,0 1,24.3 24.3z" id="path_2"/><path fill="#FFFFFF" d="M614.1,422.2a204.2,204.2 0,0 0,25.2 27.6h11v-27.6z" id="path_3"/><path fill="#FFFFFF" d="M581.6,612.4a305.9,305.9 0,0 0,28.1 -60.1c14.4,-39.7 16.5,-61.7 16.5,-61.7l-114.2,-0.9L512,450.6l127.2,-0.9a204.2,204.2 0,0 1,-25.2 -27.6L512,422.1L512,359.4L444.3,359.4v62.8L315.3,422.2v27.5l128.9,-0.9v41.8h-103.4v22h212.9a205.5,205.5 0,0 1,-10.2 39.7c-8.1,22 -16.6,41.4 -16.6,41.4s-100.2,-35 -153.2,-35 -116.7,21.2 -122.9,82.5 29.8,94.7 80.6,107 97.6,0 138.2,-20.1 80.8,-65.4 80.8,-65.4l179.2,89.4a23.7,23.7 0,0 1,7 -14.4,24 24,0 0,1 17.2,-7.2h124.6zM363.2,714.8c-74.7,0 -90.4,-36.7 -90.4,-63s15.4,-55 79.1,-59.2 149.4,45.1 149.4,45.1 -63.3,77.1 -138,77.1z" id="path_4"/></svg>