<svg id="vector" xmlns="http://www.w3.org/2000/svg" width="801.51" height="772" viewBox="0 0 801.51 772"><path fill="#d6d6e3" d="M0,625.14a371,146.86 0,1 0,742 0a371,146.86 0,1 0,-742 0z" id="path_0"/><path fill="#ed9da0" d="M626.42,146.42c2.45,-52.56 -38.18,-97.16 -90.74,-99.6 -52.56,-2.45 -97.16,38.18 -99.6,90.74 -1.99,42.63 24.36,80.01 62.43,93.93l12.73,122.45 97.43,-73.79s-19.06,-26.75 -28.57,-56.36c26.48,-15.85 44.77,-44.22 46.32,-77.36Z" id="path_1"/><path fill="#465CFF" d="M500,249s-59.79,-2.08 -78.75,22.56c-18.97,24.64 -31.25,66.44 -30.25,97.44s74.28,194.19 74.28,194.19l269,48 15.92,0.77c25.73,1.24 47.83,-18.07 50.05,-43.74v-0c4.23,-49.12 -2.15,-98.56 -18.68,-145.01 -20.19,-56.77 -49.27,-128.13 -73.57,-147.22 -42,-33 -120,-31 -120,-31l0.2,0.16 -48.2,67.84 -40,-64Z" id="path_2"/><path fill="#090814" d="M183.57,601.4l-34.8,17.39 166.51,30.29s22.32,32.93 60.91,15.27l204.59,57.34 142,-98 -407.5,-77.5 -131.7,55.21Z" id="path_3"/><path fill="#d6d6e3" d="M490.28,565.1s-23.46,-30.41 -70.48,-18.91l-104.52,-18.31 -131.7,59.17s-9.8,25.64 -15.8,26.64c0,0 156,17.96 168.5,33.48l35.5,8.52s28,-4 50,11 153,43 153,43l138.95,-90.9 -23.34,-19.33 -200.11,-34.36Z" id="path_4"/><path fill="#090814" d="M557.9,674.77l-0.4,-0.12c-69.74,-20.13 -175.48,-49.5 -180.9,-47.97l-0.88,-1.79c1.12,-0.6 3.74,-2.01 93.56,22.78 41.96,11.58 83.84,23.64 88.37,24.94l132.25,-74.03 0.98,1.75 -132.98,74.44Z" id="path_5"/><path fill="#090814" d="M353.33,639.06l-0.45,-0.93c-0.18,-0.36 -18.37,-36.46 -70.49,-35.73 -52.98,0.69 -98.67,-14.24 -99.13,-14.4l0.63,-1.9c0.45,0.15 45.86,14.96 98.47,14.29 27.87,-0.37 46.05,9.64 56.37,18.11 9.31,7.63 14.02,15.24 15.46,17.83l135.62,-72.12 0.94,1.77 -137.41,73.08Z" id="path_6"/><path fill="#465CFF" d="M332.78,460.66l-50.5,19.53s35.28,78.19 73,87l36.97,-53.26 -59.47,-53.26Z" id="path_7"/><path fill="#ed9da0" d="M320.63,481.77l112.37,-82.77 14,63 -95.29,61.67c-1.74,13.16 -9.48,26.52 -22.26,36 -22.37,16.59 -51.63,15.04 -65.36,-3.48 -13.73,-18.51 -6.73,-46.97 15.64,-63.56 12.78,-9.48 27.81,-13.01 40.91,-10.86Z" id="path_8"/><path fill="#090814" d="M518.88,92.05s-19.86,21.58 -42.3,23.31c-22.44,1.73 -27.92,0 -27.92,0 0,0 -21.29,11.22 -5.75,23.31l4.32,7.77s-3.08,5.18 -6.29,0l0.24,7.77s-16.4,-6.91 -16.4,-18.99c0,0 -17.08,8.63 -23.65,-12.09 0,0 13.47,8.63 13.81,0 0,0 -22.97,-13.81 -17.79,-34.53 0,0 0.86,7.77 5.18,8.63 0,0 -13.81,-29.35 5.18,-42.3l2.59,10.36s0,-18.99 18.99,-25.9c0,0 -2.59,8.63 0.86,12.09 0,0 5.18,-23.31 14.68,-22.44 0,0 -5.18,10.36 1.73,10.36 6.91,0 16.4,-25.9 16.4,-25.9 0,0 13.81,-7.77 18.99,-6.91 0,0 -17.27,10.36 -6.91,10.36s15.54,-7.77 15.54,-7.77c0,0 17.27,-14.68 37.12,-6.91 19.86,7.77 17.27,7.77 17.27,7.77 0,0 16.4,-13.81 29.35,-6.04l-4.32,5.18s42.3,9.5 42.3,29.35c0,0 20.2,16.46 14.42,32.83 0,0 9.76,6.01 8.03,13.78 0,0 12.95,58.7 -1.73,78.56l-12.09,13.81s-18.13,-50.93 -25.9,-30.21c-7.77,20.72 -22.44,-5.18 -22.44,-5.18 0,0 -19.86,-14.68 -21.58,-35.39s-31.94,-14.68 -31.94,-14.68Z" id="path_9"/><path fill="#465CFF" d="M434,302l-19,-16 -40,142 -92.72,52.19s114,-6 73,87l112.72,-20.19 -10.72,-84.81 -23.28,-160.19Z" id="path_10"/><path fill="#090814" d="M276.78,409.69l-6.65,4.5l3.32,16.3l56.21,155.61l16.28,-6.8l-60.17,-157.61l-9,-12z" id="path_11"/><path fill="#090814" d="M338.65,577.91l-5.87,2.78 1.6,5.41s-2.78,12.56 8.81,18.07l4.59,6.52 1,-8s0.74,-18.56 -10.13,-24.78Z" id="path_12"/><path fill="#ed9da0" d="M573.88,538.86l189.43,7.95 3.69,57.2 -195.19,-13.02c-9.61,9.16 -24.02,14.71 -39.92,14.07 -27.83,-1.11 -49.64,-20.68 -48.73,-43.71 0.92,-23.03 24.22,-40.8 52.05,-39.69 15.9,0.63 29.82,7.31 38.68,17.2Z" id="path_13"/><path fill="#090814" d="M548,410m-7,0a7,7 0,1 1,14 0a7,7 0,1 1,-14 0" id="path_14"/><path fill="#090814" d="M548,492m-7,0a7,7 0,1 1,14 0a7,7 0,1 1,-14 0" id="path_15"/><path fill="#d6d6e3" d="M282.28,136.86s-71.5,-31.16 -117.5,3.84c0,0 -27.01,127.65 -49.01,138.82 0,0 179.25,-17.39 214.63,6.89 0,0 -39.62,-66.39 -48.12,-149.55Z" id="path_16"/><path fill="#d6d6e3" d="M205.86,261.1l-1.08,27.59s12,11 7,30l-5,2 2.11,3.02 -9.11,6.98 6.61,6.05s9.61,11.71 0,14.83l3.39,7.12s5.22,18.55 -3.39,33.27c-8.61,14.73 -21.39,32.63 0,64.68l-3.61,8.05 5,7s-3,17 -11,21h50s-14,-16 -11,-20 6,-7 6,-7l-7,-8s30.71,-24.54 2.86,-61.77c0,0 -7.86,-31.23 -3.86,-37.23l3,-6s-8,-6 -1,-17l8,-3 -9,-7 3,-4 -7,-5s-4,-23 8,-28l-3,-19 -29.92,-8.59Z" id="path_17"/><path fill="#465CFF" d="M748.78,611.66h-0c5.47,-7.19 -138.94,-12.99 -142.78,-19.66 -20.75,-36.02 -10,-64 -10,-64l169,-40 -75.22,-78.31 61.66,46.84c34.14,25.93 52.6,67.55 48.92,110.26v0c-2.28,26.42 -25.1,46.27 -51.59,44.86Z" id="path_18"/><path fill="#090814" d="M183.46,585.2l76.27,-36.65l0.87,1.8l-76.27,36.65z" id="path_19"/></svg>