<svg id="vector" xmlns="http://www.w3.org/2000/svg" width="32" height="32" viewBox="0 0 1024 1024"><path fill="#000000" d="M933.4,379.4L865.3,309.2c-5.6,-6.1 -14.3,-9.7 -22.5,-9.7 -7.7,1 -16.4,3.1 -22.5,9.2 -28.2,28.2 -77.8,27.6 -105.5,-1 -13.8,-13.8 -21.5,-32.8 -21,-52.7 0.5,-19.5 8.2,-38.4 22.5,-52.2 12.8,-12.3 12.8,-32.3 0.5,-45.1l-69.1,-69.1c-31.2,-32.3 -86,-32.8 -118.3,-1.5l-442.9,434.2c-15.9,15.4 -25.1,36.4 -25.1,58.9 -0.5,22.5 8.2,43.5 23.6,59.4l68.1,70.1c5.6,6.1 14.3,9.7 22.5,9.7 7.2,0 16.4,-3.1 22.5,-9.2 28.2,-27.6 77.8,-27.1 105.5,1.5 14.3,13.8 21.5,32.8 21.5,52.7 -0.5,20 -8.2,38.4 -22.5,52.2 -12.8,12.3 -12.8,32.3 -0.5,45.1L370.2,931.8c15.9,16.4 37.4,25.1 59.9,25.1 22,0 43,-8.2 58.4,-25.1L931.8,497.7c15.9,-15.4 25.1,-36.4 25.1,-58.9 0.5,-22.5 -8.2,-43.5 -23.6,-59.4zM427.5,624.6l178.2,-179.2c12.8,-12.8 33.3,-12.8 45.6,0.5 12.3,12.8 10.8,33.3 -1.5,45.6l-177.7,177.7a30,30 0,0 1,-22 9.7c-8.2,0 -16.4,-3.1 -22.5,-9.2 -12.8,-12.8 -12.8,-32.8 0,-45.1zM376.3,573.4c-5.6,6.7 -13.8,9.7 -22,9.7 -8.7,0 -17.4,-3.6 -24.1,-10.8 -11.8,-12.8 -10.2,-32.8 1.5,-44.5l177.2,-177.2c12.3,-12.3 32.8,-13.3 45.6,-1.5 13.3,12.3 13.3,33.3 0.5,45.6L376.3,573.4z" id="path_0"/></svg>