<svg id="vector" xmlns="http://www.w3.org/2000/svg" width="32" height="32" viewBox="0 0 1024 1024"><path fill="#000000" d="M538.1,139.8l277.5,123.4c23,10.2 37.9,33.3 37.9,58.4v381.4c0,25.1 -14.8,48.1 -37.9,58.4l-277.5,123.4c-16.4,7.2 -35.3,7.2 -52.2,0l-277.5,-123.4c-23,-10.2 -37.9,-33.3 -37.9,-58.4L170.5,321c0,-25.1 14.8,-48.1 37.9,-58.4l277.5,-123.4c16.9,-7.2 35.3,-7.2 52.2,0.5zM234.5,400.9v293.9c0,5.1 3.1,9.7 7.7,11.8l225.3,99.8c8.2,3.6 17.9,-2.6 17.9,-11.8L485.4,497.2c0,-5.1 -3.1,-9.7 -7.7,-11.8L252.4,389.1c-8.2,-3.6 -17.9,2.6 -17.9,11.8zM789.5,384l-232.4,99.3c-4.6,2 -7.7,6.7 -7.7,11.8v294.9c0,9.2 9.7,15.4 17.9,11.8l214.5,-95.2c4.6,-2 7.7,-6.7 7.7,-11.8L789.5,384zM506.9,200.2L271.9,304.6c-10.2,4.6 -10.2,18.9 0,23.6L509.4,430.1c3.1,1.5 6.7,1.5 10.2,0l234.5,-100.4c10.2,-4.6 10.2,-18.9 0,-23.6L517.1,200.2c-3.1,-1.5 -7.2,-1.5 -10.2,0z" id="path_0"/></svg>