<svg id="vector" xmlns="http://www.w3.org/2000/svg" width="32" height="32" viewBox="0 0 1024 1024"><path fill="#000000" d="M430.1,956.9c-22.5,0 -44,-8.7 -59.9,-25.1L302.1,861.7c-12.3,-12.8 -12.3,-32.8 0.5,-45.1 14.3,-13.8 22,-32.3 22.5,-52.2 0,-20 -7.2,-38.9 -21.5,-52.7 -27.6,-28.7 -77.3,-29.2 -105.5,-1.5 -6.1,6.1 -15.4,9.2 -22.5,9.2 -8.2,0 -16.9,-3.6 -22.5,-9.7l-68.1,-70.1c-15.4,-15.9 -24.1,-36.9 -23.6,-59.4 0,-22.5 9.2,-43.5 25.1,-58.9L529.4,87c32.3,-31.2 87,-30.7 118.3,1.5L716.8,157.7c12.3,12.8 12.3,32.8 -0.5,45.1 -14.3,13.8 -22,32.8 -22.5,52.2 -0.5,20 7.2,38.9 21,52.7 27.6,28.7 77.3,29.2 105.5,1 6.1,-6.1 14.8,-8.2 22.5,-9.2 8.2,0 16.9,3.6 22.5,9.7l68.1,70.1c15.4,15.9 24.1,36.9 23.6,59.4 0,22.5 -9.2,43.5 -25.1,58.9L488.4,931.8c-15.4,16.9 -36.4,25.1 -58.4,25.1zM379.9,812.5c-6.1,16.4 -2.6,34.8 9.7,47.6l26.1,27.1c7.2,7.2 20.5,7.7 27.6,0l443.4,-434.7c3.6,-3.6 5.6,-8.7 6.1,-13.8 0,-5.1 -2,-10.2 -5.6,-13.8l-26.1,-26.6c-12.3,-12.8 -30.7,-16.9 -47.6,-11.3 -14.8,5.1 -30.2,7.7 -46.1,7.7 -37.9,0 -72.7,-14.8 -99.3,-42 -25.6,-26.6 -39.9,-61.4 -39.4,-98.3 0,-16.9 3.1,-32.8 9.2,-48.1 6.1,-16.4 2.6,-34.8 -9.7,-47.6l-26.1,-27.1c-7.2,-7.2 -20.5,-7.7 -27.6,0l-443.4,434.7c-3.6,3.6 -5.6,8.7 -6.1,13.8 0,5.1 2,10.2 5.6,13.8l26.1,26.6c12.3,12.8 30.7,16.9 47.6,11.3 14.8,-5.1 30.2,-7.7 46.1,-7.7 37.9,0 72.7,14.8 99.3,42 25.6,26.6 39.9,61.4 39.4,98.3 0,16.9 -3.1,33.3 -9.2,48.1z" id="path_0"/><path fill="#000000" d="M354.3,583.2c-8.7,0 -17.4,-3.6 -24.1,-10.8 -11.8,-12.8 -10.2,-32.8 1.5,-44.5l177.2,-177.2c12.3,-12.3 32.8,-13.3 45.6,-1.5 13.3,12.3 13.3,33.3 0.5,45.6L376.3,573.4c-5.6,6.7 -13.8,9.7 -22,9.7zM450,678.9c-8.2,0 -16.4,-3.1 -22.5,-9.2 -12.8,-12.8 -12.8,-32.8 0,-45.1l178.2,-179.2c12.8,-12.8 33.3,-12.8 45.6,0.5 12.3,12.8 10.8,33.3 -1.5,45.6l-177.7,177.7a30,30 0,0 1,-22 9.7z" id="path_1"/></svg>