<svg id="vector" xmlns="http://www.w3.org/2000/svg" width="32" height="32" viewBox="0 0 1024 1024"><path fill="#000000" d="M835.1,588.8c6.7,-15.9 0,-35.3 -15.9,-41.5 -15.9,-6.7 -35.3,0 -41.5,15.9 -15.9,28.7 -79.9,45.1 -169.5,45.1 -19.5,0 -32.3,12.8 -32.3,32.3s12.8,31.7 32.3,31.7h9.7c82.9,0 185.3,-16.4 217.1,-83.5z" id="path_0"/><path fill="#000000" d="M905.7,438.3l-41.5,-15.9c-12.8,-182.3 -166.4,-329.7 -352.3,-329.7 -188.9,0 -342.5,150.5 -352.3,335.9l-19.5,12.8c-6.1,6.7 -12.8,15.9 -12.8,25.6v134.7c0,19.5 12.8,32.3 32.3,32.3s32.3,-12.8 32.3,-32.3V486.4l19.5,-12.8c6.7,-6.7 12.8,-15.9 12.8,-28.7 0,-160.3 128,-288.3 288.3,-288.3s288.3,128 288.3,288.3c0,12.8 9.7,25.6 22.5,28.7l41.5,15.9v109.1c0,19.5 12.8,32.3 32.3,32.3s32.3,-12.8 32.3,-32.3V463.9c-1,-9.2 -10.8,-22 -23.6,-25.6z" id="path_1"/><path fill="#000000" d="M512,649.7c-99.3,0 -182.3,-79.9 -182.3,-182.3 0,-99.3 79.9,-182.3 182.3,-182.3 99.3,0 182.3,79.9 182.3,182.3 0,12.8 0,25.6 -3.1,38.4 -3.1,15.9 6.7,35.3 25.6,38.4 15.9,3.1 35.3,-6.7 38.4,-25.6 3.1,-15.9 6.7,-35.3 6.7,-51.2 0,-134.7 -108.5,-246.3 -246.3,-246.3S268.8,329.7 268.8,467.5c0,86.5 44.5,160.3 112.1,204.8 -112.1,38.4 -195.1,128 -217.6,246.3 -3.1,15.9 6.1,35.3 25.6,38.4h6.7c15.9,0 28.7,-9.7 32.3,-25.6 25.6,-131.1 140.8,-217.6 288.3,-217.6 19.5,0 32.3,-12.8 32.3,-32.3 -4.1,-18.9 -16.9,-31.7 -36.4,-31.7zM755.2,710.7c-12.8,-9.7 -35.3,-9.7 -45.1,6.7 -9.7,12.8 -9.7,35.3 6.7,45.1 44.5,35.3 99.3,89.6 115.2,173.1 3.1,15.9 15.9,25.6 32.3,25.6h6.7c15.9,-3.1 28.7,-19.5 25.6,-38.4 -19.5,-103.4 -87,-170.5 -141.3,-212z" id="path_2"/></svg>