<svg id="vector" xmlns="http://www.w3.org/2000/svg" width="32" height="32" viewBox="0 0 1024 1024"><path fill="#000000" d="M512,149.5c-176.6,0 -320,143.4 -320,320 0,111.1 68.6,187.4 71.7,190.5 29.7,32.8 56.3,100.4 56.3,144.9v55.8c0,70.7 57.3,128 128,128h128c70.7,0 128,-57.3 128,-128v-55.8c0,-44.5 26.1,-112.1 56.3,-144.9 3.1,-3.6 71.7,-79.4 71.7,-190.5 0,-176.6 -143.4,-320 -320,-320zM415.7,832c0,-17.9 14.3,-32.3 32.3,-32.3h128c17.9,0 32.3,14.3 32.3,32.3s-14.3,32.3 -32.3,32.3h-128c-17.4,0 -32.3,-14.3 -32.3,-32.3zM609.8,513l-12.3,-36.4c-1.5,-4.6 -7.7,-6.1 -11.3,-2.6l-51.7,51.7c-12.3,12.3 -32.8,12.3 -45.1,0L437.8,474.1c-3.6,-3.6 -9.7,-2 -11.3,2.6l-12.3,36.4c-5.6,16.9 -23.6,26.1 -40.4,20 -16.9,-5.6 -25.6,-23.6 -20,-40.4l32.3,-96.3c3.6,-10.8 12.3,-18.4 23,-21 10.8,-2.6 22,0.5 30.2,8.7l68.6,68.6c2.6,2.6 6.7,2.6 9.7,0L586.2,384c7.7,-7.7 18.9,-11.3 30.2,-8.7 10.8,2.6 19.5,10.2 23,21l32.3,96.3c5.6,16.9 -3.6,34.8 -20,40.4 -5.1,1.5 -8.2,2 -11.8,2 -13.3,0 -26.1,-8.7 -30.2,-22zM920.6,174.1c-11.8,-13.3 -31.7,-14.3 -45.1,-2.6l-32.8,29.2c-13.3,11.8 -14.3,31.7 -2.6,45.1 6.1,7.2 14.8,10.8 23.6,10.8 7.7,0 15.4,-3.1 22,-8.2l32.8,-29.2c12.8,-11.8 13.8,-31.7 2,-45.1zM181.2,200.7L148.5,171.5c-12.8,-11.8 -33.3,-10.2 -45.1,2.6s-10.8,33.3 2.6,45.1l32.8,29.2c6.1,5.6 13.8,8.2 21.5,8.2 8.7,0 17.4,-3.6 23.6,-10.8 11.8,-12.8 10.8,-33.3 -2.6,-45.1zM512,128c17.4,0 32.3,-14.3 32.3,-32.3v-31.7c0,-17.9 -14.3,-32.3 -32.3,-32.3s-32.3,14.3 -32.3,32.3v31.7c0,17.9 14.8,32.3 32.3,32.3z" id="path_0"/></svg>