<svg id="vector" xmlns="http://www.w3.org/2000/svg" width="32" height="32" viewBox="0 0 1024 1024"><path fill="#000000" d="M352.3,832c-36.4,0 -65.5,29.7 -64,66.6 1,32.8 28.7,60.4 61.4,61.4 36.4,1.5 66.6,-27.6 66.6,-64 0,-35.3 -28.2,-64 -64,-64zM800.8,832c-36.4,0 -65.5,29.7 -64,66.6 1,32.8 28.7,60.4 61.4,61.4 36.4,1.5 66.6,-27.6 66.6,-64 0,-35.3 -29.2,-64 -64,-64zM862.7,800.3H344.1c-46.1,0 -86.5,-36.4 -92.2,-82.9L197.6,334.8l-30.7,-178.7c-2,-15.9 -16.4,-28.2 -29.7,-28.2H97.3c-17.4,0 -32.8,-13.3 -33.3,-31.2 -0.5,-17.9 13.8,-32.8 31.7,-32.8h41c46.6,0 87.6,36.4 93.2,82.9l30.7,177.7 54.8,384c1.5,14.8 15.4,27.1 28.7,27.1h519.7c17.9,0 32.3,14.8 31.7,32.8 0,17.9 -15.4,31.7 -32.8,31.7z" id="path_0"/><path fill="#000000" d="M384.5,672.3c-16.9,0 -30.7,-12.8 -31.7,-29.7 -1.5,-17.4 11.8,-33.3 29.7,-34.3l434.2,-31.7c15.9,0 29.2,-12.8 31.2,-26.6l50.2,-288.3c1,-10.8 -1.5,-22.5 -8.2,-29.7 -4.1,-4.6 -9.2,-7.2 -15.4,-7.2H321c-16.4,0 -30.7,-11.8 -32.8,-27.6 -2.6,-19.5 12.8,-36.9 31.7,-36.9h554c24.6,0 47.1,10.2 63.5,28.7 17.4,19.5 26.1,46.6 24.1,75.3 -0.5,4.6 -1,8.7 -1.5,13.3l-49.2,282.1c-5.6,45.1 -46.1,81.4 -92.2,81.4l-431.6,31.7c-1,-1 -2,-0.5 -2.6,-0.5z" id="path_1"/></svg>