<svg id="vector" xmlns="http://www.w3.org/2000/svg" width="32" height="32" viewBox="0 0 1024 1024"><path fill="#000000" d="M557.1,512l275.5,-275.5c12.8,-12.8 12.8,-32.3 0,-45.1s-32.3,-12.8 -45.1,0L512,467.5 236.5,190c-12.8,-12.8 -32.3,-12.8 -45.1,0 -12.8,12.8 -12.8,32.3 0,45.1L467.5,512l-277.5,275.5c-12.8,12.8 -12.8,32.3 0,45.1 6.7,6.7 14.8,8.7 23.6,8.7 8.7,0 16.9,-2 23.6,-8.7l275.5,-275.5 275.5,275.5c6.7,6.7 14.8,8.7 23.6,8.7 8.7,0 16.9,-2 23.6,-8.7 12.8,-12.8 12.8,-32.3 0,-45.1L557.1,512z" id="path_0"/></svg>