<svg id="vector" xmlns="http://www.w3.org/2000/svg" width="32" height="32" viewBox="0 0 1024 1024"><path fill="#000000" d="M608.3,768c-17.9,0 -32.3,-14.3 -32.3,-32.3V384c0,-17.9 14.3,-32.3 32.3,-32.3s32.3,14.3 32.3,32.3v351.7c-0.5,17.9 -14.8,32.3 -32.3,32.3zM416.3,768c-17.9,0 -32.3,-14.3 -32.3,-32.3V384c0,-17.9 14.3,-32.3 32.3,-32.3s32.3,14.3 32.3,32.3v351.7c-0.5,17.9 -14.8,32.3 -32.3,32.3z" id="path_0"/><path fill="#000000" d="M736.3,960H288.3c-52.7,0 -96.3,-43 -96.3,-96.3V383.5c0,-17.9 14.3,-32.3 32.3,-32.3 17.4,0 32.3,14.3 32.3,32.3v480.3c0,17.9 14.3,32.3 32.3,32.3h448c17.9,0 32.3,-14.3 32.3,-32.3V385c0,-17.4 14.3,-32.3 32.3,-32.3s32.3,14.3 32.3,32.3v479.2c-1.5,52.7 -44.5,95.7 -97.3,95.7zM597.5,181.2H426.5c-17.9,0 -31.7,-14.3 -31.7,-31.7 0,-17.9 14.3,-31.7 31.7,-31.7h170.5c17.9,0 31.7,14.3 31.7,31.7 0.5,17.4 -13.8,31.7 -31.2,31.7zM862.2,288.3H161.8c-17.9,0 -31.7,-14.3 -31.7,-31.7 0,-17.9 14.3,-31.7 31.7,-31.7h699.9c17.9,0 32.3,14.3 32.3,31.7 0,17.4 -14.3,31.7 -31.7,31.7z" id="path_1"/></svg>