<svg id="vector" xmlns="http://www.w3.org/2000/svg" width="32" height="32" viewBox="0 0 1024 1024"><path fill="#000000" d="M807.9,641.5c-80.9,0 -146.9,66 -146.9,146.9s66,146.9 146.9,146.9 146.9,-66 146.9,-146.9 -65.5,-146.9 -146.9,-146.9zM807.9,882.7c-51.7,0 -94.2,-42 -94.2,-94.2 0,-51.7 42,-94.2 94.2,-94.2 51.7,0 94.2,42 94.2,94.2s-42,94.2 -94.2,94.2z" id="path_0"/><path fill="#000000" d="M858.6,762.4h-101.4c-14.3,0 -26.6,12.3 -26.6,26.6s12.3,26.6 26.6,26.6h101.4c14.3,0 26.6,-12.3 26.6,-26.6 0,-14.8 -11.8,-26.6 -26.6,-26.6z" id="path_1"/><path fill="#000000" d="M301.1,400.4c-17.9,0 -32.3,14.3 -32.3,32.3v213.5c0,17.9 14.3,32.3 32.3,32.3s32.3,-14.3 32.3,-32.3V432.1c-0.5,-17.4 -14.8,-31.7 -32.3,-31.7zM621.1,442.9c-17.9,0 -32.3,14.3 -32.3,32.3v170.5c0,17.9 14.3,32.3 32.3,32.3s32.3,-14.3 32.3,-32.3V475.1c-0.5,-17.9 -14.8,-32.3 -32.3,-32.3z" id="path_2"/><path fill="#000000" d="M202.8,821.2c-29.7,0 -53.2,-24.1 -53.2,-53.2V256c0,-29.7 24.1,-53.2 53.2,-53.2h618.5c29.7,0 53.2,24.1 53.2,53.2v288.3c0,17.9 14.3,31.7 32.3,31.7s32.3,-14.3 32.3,-31.7V256c0,-65 -52.7,-117.2 -117.2,-117.2H202.8c-65,0 -117.2,52.7 -117.2,117.2v512c0,65 52.7,117.2 117.2,117.2h362.5c17.9,0 31.7,-14.3 31.7,-32.3s-14.3,-32.3 -31.7,-32.3H202.8z" id="path_3"/><path fill="#000000" d="M460.8,314.9c-17.9,0 -32.3,14.3 -32.3,32.3v298.5c0,17.9 14.3,32.3 32.3,32.3s32.3,-14.3 32.3,-32.3V347.1c0,-17.9 -14.3,-32.3 -32.3,-32.3z" id="path_4"/></svg>