<svg id="vector" xmlns="http://www.w3.org/2000/svg" width="32" height="32" viewBox="0 0 1024 1024"><path fill="#000000" d="M352.3,832c-36.4,0 -65.5,29.7 -64,66.6 1,32.8 28.7,60.4 61.4,61.4 36.4,1.5 66.6,-27.6 66.6,-64 0,-35.3 -28.2,-64 -64,-64zM800.8,832c-36.4,0 -65.5,29.7 -64,66.6 1,32.8 28.7,60.4 61.4,61.4 36.4,1.5 66.6,-27.6 66.6,-64 0,-35.3 -29.2,-64 -64,-64zM862.7,800.3H344.1c-46.1,0 -86.5,-36.4 -92.2,-82.9L197.6,334.8l-30.7,-178.7c-2,-15.9 -16.4,-28.2 -29.7,-28.2H97.3c-17.4,0 -32.8,-13.3 -33.3,-31.2s13.8,-32.8 31.7,-32.8h41c46.6,0 87.6,36.4 93.2,82.9l30.7,177.7 54.8,384c1.5,14.8 15.4,27.1 28.7,27.1h519.7c17.9,0 32.3,14.8 31.7,32.8 0,17.9 -15.4,31.7 -32.8,31.7zM749.6,162.3H650.2c-13.3,0 -23.6,-8.7 -25.1,-21.5 -1.5,-12.3 5.6,-24.1 17.4,-27.6 3.6,-1 7.7,-1 11.8,-1h145.9c4.6,0 9.7,-0.5 14.3,0 10.2,2 17.4,7.7 20.5,17.9 3.1,9.7 0,18.4 -7.2,25.6l-112.6,112.6c-1,1 -2,2.6 -3.6,3.6 2.6,1.5 5.1,1 7.2,1h92.2c12.8,0 23,8.7 24.6,21 2,11.8 -5.6,23.6 -16.9,27.6 -4.1,1.5 -8.7,1.5 -12.8,1.5h-145.9c-5.1,0 -9.7,0.5 -14.8,-0.5 -18.4,-3.6 -26.6,-25.1 -15.4,-39.9 1.5,-2 3.6,-4.1 5.6,-5.6l111.6,-112.1c0.5,0 1,-0.5 2.6,-2.6z" id="path_0"/><path fill="#000000" d="M543.2,509.4c18.4,0 35.3,-0.5 51.7,0 20.5,0.5 33.3,20.5 23.6,37.9 -4.6,9.2 -12.8,13.8 -23,13.8H480.3c-11.3,0 -20.5,-5.6 -24.1,-15.9 -4.1,-10.8 -2,-20.5 6.1,-28.7L527.4,451.6c1.5,-1.5 3.1,-3.6 5.1,-5.1 -2,-1.5 -4.1,-1 -5.6,-1H481.3c-14.8,0 -26.1,-10.8 -26.6,-24.6 -0.5,-14.3 9.2,-25.1 24.1,-27.1 2.6,-0.5 5.1,-0.5 7.7,-0.5 35.8,0 72.2,0 108,-0.5 11.8,0 21.5,6.1 25.6,15.9 4.1,10.2 1.5,21.5 -6.7,30.2l-66,66c-1,1.5 -2,2.6 -4.1,4.6zM468.5,288.8h39.9c15.9,0.5 25.6,15.9 18.4,29.7 -3.6,7.2 -9.7,10.8 -17.9,10.8H419.8c-8.7,0 -15.9,-4.6 -18.9,-12.3 -3.1,-8.2 -1.5,-15.9 4.6,-22l50.2,-50.2 4.1,-4.1c-1.5,-1.5 -3.1,-1 -4.6,-1h-34.8c-11.3,0 -20,-8.2 -20.5,-18.9 -0.5,-10.8 7.2,-19.5 18.4,-21 2,0 4.1,-0.5 6.1,-0.5h83.5c9.2,0 16.9,4.6 20,12.3 3.6,7.7 1.5,16.9 -5.1,23 -16.9,16.9 -33.8,33.8 -51.2,50.7 -1,1 -1.5,2 -3.1,3.6z" id="path_1"/><path fill="#000000" d="M847.9,549.9c-2,13.8 -15.4,26.6 -31.2,26.6l-434.2,31.7c-17.9,1 -31.2,16.9 -29.7,34.3 1,16.9 14.8,29.7 31.7,29.7 0.5,0 1.5,-0.5 2.6,0.5l431.6,-31.7c46.1,0 86.5,-36.4 92.2,-81.4l37.9,-218.1c3.6,-19.5 -11.8,-37.4 -31.2,-37.4 -15.4,0 -28.7,11.3 -31.2,26.6l-38.4,219.1z" id="path_2"/></svg>