<svg id="vector" xmlns="http://www.w3.org/2000/svg" width="32" height="32" viewBox="0 0 1024 1024"><path fill="#000000" d="M645.6,64c16.9,0 33.3,6.7 45.1,18.9l186.4,186.4c11.8,11.8 18.9,28.2 18.9,45.1v517.6c0,70.7 -57.3,128 -128,128L256,960c-70.7,0 -128,-57.3 -128,-128v-640c0,-70.7 57.3,-128 128,-128h389.6zM642,128L256,128c-32.3,0 -59.9,24.1 -63.5,56.3l-0.5,7.7v640c0,32.3 24.1,59.9 56.3,63.5l7.7,0.5h512c32.3,0 59.9,-24.1 63.5,-56.3l0.5,-7.7v-512h-62c-67.1,0 -122.4,-51.7 -127.5,-118.3l-0.5,-9.7L642,128zM706,188.4v3.6c0,32.3 24.1,59.9 56.3,63.5l7.7,0.5h3.6l-67.6,-67.6z" id="path_0"/><path fill="#000000" d="M647.2,433.7H547.8c-13.3,0 -23.6,-8.7 -25.1,-21.5 -1.5,-12.3 5.6,-24.1 17.4,-27.6 3.6,-1 7.7,-1 11.8,-1h145.9c4.6,0 9.7,-0.5 14.3,0 10.2,2 17.4,7.7 20.5,17.9 3.1,9.7 0,18.4 -7.2,25.6l-112.6,112.6c-1,1 -2,2.6 -3.6,3.6 2.6,1.5 5.1,1 7.2,1h92.2c12.8,0 23,8.7 24.6,21 2,11.8 -5.6,23.6 -16.9,27.6 -4.1,1.5 -8.7,1.5 -12.8,1.5h-145.9c-5.1,0 -9.7,0.5 -14.8,-0.5 -18.4,-3.6 -26.6,-25.1 -15.4,-39.9 1.5,-2 3.6,-4.1 5.6,-5.6l111.6,-112.1c0.5,0 1,-0.5 2.6,-2.6zM440.8,780.8c18.4,0 35.3,-0.5 51.7,0 20.5,0.5 33.3,20.5 23.6,37.9 -4.6,9.2 -12.8,13.8 -23,13.8H377.9c-11.3,0 -20.5,-5.6 -24.1,-15.9 -4.1,-10.8 -2,-20.5 6.1,-28.7L425,722.9c1.5,-1.5 3.1,-3.6 5.1,-5.1 -2,-1.5 -4.1,-1 -5.6,-1H378.9c-14.8,0 -26.1,-10.8 -26.6,-24.6 -0.5,-14.3 9.2,-25.1 24.1,-27.1 2.6,-0.5 5.1,-0.5 7.7,-0.5 35.8,0 72.2,0 108,-0.5 11.8,0 21.5,6.1 25.6,15.9 4.1,10.2 1.5,21.5 -6.7,30.2l-66,66c-1,1.5 -2,2.6 -4.1,4.6zM366.1,560.1h39.9c15.9,0.5 25.6,15.9 18.4,29.7 -3.6,7.2 -9.7,10.8 -17.9,10.8H317.4c-8.7,0 -15.9,-4.6 -18.9,-12.3 -3.1,-8.2 -1.5,-15.9 4.6,-22l50.2,-50.2 4.1,-4.1c-1.5,-1.5 -3.1,-1 -4.6,-1h-34.8c-11.3,0 -20,-8.2 -20.5,-18.9 -0.5,-10.8 7.2,-19.5 18.4,-21 2,0 4.1,-0.5 6.1,-0.5h83.5c9.2,0 16.9,4.6 20,12.3 3.6,7.7 1.5,16.9 -5.1,23 -16.9,16.9 -33.8,33.8 -51.2,50.7 -1,1 -1.5,2 -3.1,3.6z" id="path_1"/></svg>