<svg id="vector" xmlns="http://www.w3.org/2000/svg" width="32" height="32" viewBox="0 0 1024 1024"><path fill="#000000" d="M912.4,273.4c-84.5,-124.9 -224.8,-199.7 -375.3,-199.7 -249.3,0 -452.6,202.8 -452.6,452.6 0,186.4 117.2,356.4 291.3,422.9 3.6,1.5 7.7,2 11.3,2 13.3,0 25.1,-8.2 29.7,-20.5 6.1,-16.4 -2,-34.8 -18.4,-41.5 -67.6,-25.6 -126,-70.1 -170.5,-128h114.2c13.8,27.1 29.7,53.2 47.6,77.3 6.1,8.2 15.9,13.3 25.6,13.3 6.7,0 13.3,-2 18.9,-6.1 14.3,-10.8 16.9,-30.7 6.7,-44.5 -9.2,-12.8 -18.4,-26.1 -26.1,-39.4h8.2c16.4,0 30.7,-11.8 32.8,-27.6 2.6,-19.5 -12.8,-36.4 -31.7,-36.4h-41c-17.9,-44.5 -28.7,-92.2 -31.7,-140.3h39.4c17.9,0 31.7,-14.3 31.7,-31.7 0,-17.9 -14.3,-31.7 -31.7,-31.7h-39.4c3.6,-47.6 13.8,-94.2 31.7,-138.8h340c16.9,0 32.3,-12.8 33.3,-29.7 1,-16.4 -10.2,-30.7 -26.1,-33.8 -25.6,-54.3 -60.9,-102.4 -103.9,-143.4 95.2,22 177.7,78.8 233,160.3 9.2,13.3 26.6,18.9 41,11.8 17.4,-9.2 23,-31.2 12.3,-47.1zM188.9,697.3c-22,-44.5 -34.8,-91.6 -38.9,-140.3h138.2c2.6,48.1 12.3,95.2 27.6,140.3L188.9,697.3zM288.3,493.1h-138.2c4.1,-48.6 17.4,-95.2 38.9,-138.8h127c-15.4,45.1 -24.6,91.6 -27.6,138.8zM342.5,290.3L228.9,290.3c54.3,-71.2 131.1,-120.8 217.1,-141.3 -42,41 -76.8,88.6 -103.4,141.3zM657.9,290.3L415.7,290.3c31.2,-52.7 71.7,-97.8 120.3,-134.7 48.6,36.4 90.6,82.4 121.9,134.7z" id="path_0"/><path fill="#000000" d="M921.6,545.8c3.1,-29.2 -5.6,-58.4 -24.6,-81.4 -18.9,-23 -45.1,-37.4 -74.8,-39.9 -28.7,-3.1 -57.9,6.1 -80.4,24.6l-66.6,56.3c-11.3,9.7 -12.8,26.6 -3.6,38.4 9.7,11.8 26.6,13.3 38.4,3.6l66.6,-55.3 4.1,-3.1c10.8,-7.2 23.6,-10.8 36.4,-9.2 14.3,2 27.1,9.2 36.4,20.5 18.9,23.6 16.4,57.9 -6.1,78.3l-62.5,52.7c-12.8,10.8 -14.8,30.2 -4.1,43 2.6,3.1 -0.5,7.7 -4.6,6.1 -15.4,-6.1 -33.3,1.5 -39.4,16.9l-31.7,78.3 -2,4.6c-5.6,11.8 -15.4,21 -27.6,25.6 -13.8,5.6 -28.7,6.1 -42.5,0.5 -13.8,-5.6 -24.6,-16.4 -30.2,-29.7 -5.6,-13.8 -5.6,-29.2 0,-43l32.3,-81.4c5.6,-13.8 -1,-29.7 -14.8,-35.3 -13.8,-5.6 -29.7,1 -35.3,15.4l-32.3,81.4 -2,6.1c-17.9,54.8 9.7,114.7 63,136.7 0.5,0 0.5,0 1,0.5 23,9.2 48.6,10.2 72.2,3.1 4.1,-1 7.7,-2 11.8,-3.6 26.6,-11.3 48.1,-33.3 58.4,-60.4l40.4,-104.4c0,-0.5 0.5,-1 1,-1.5l84.5,-71.2 4.6,-4.1c19.5,-18.4 31.7,-43 34.3,-69.1z" id="path_1"/><path fill="#000000" d="M807.4,536.6c-9.7,-11.8 -27.1,-13.3 -38.4,-3.6l-26.6,22c-11.8,9.7 -13.3,26.6 -3.6,38.4 9.7,11.8 26.6,13.3 38.4,3.6l26.6,-22c11.3,-9.7 12.8,-26.6 3.6,-38.4zM664.1,735.2c13.8,5.6 29.7,-1 35.3,-14.8l12.8,-32.3c5.6,-13.8 -1,-29.7 -15.4,-35.3 -13.8,-5.6 -29.7,1 -35.3,15.4l-12.8,32.3c-5.6,13.8 1.5,29.2 15.4,34.8z" id="path_2"/></svg>