<svg id="vector" xmlns="http://www.w3.org/2000/svg" width="32" height="32" viewBox="0 0 1024 1024"><path fill="#000000" d="M161.8,322.6m-58.4,0a58.4,58.4 0,1 0,116.7 0,58.4 58.4,0 1,0 -116.7,0Z" id="path_0"/><path fill="#000000" d="M298.5,234.5c-8.7,-0.5 -16.9,-5.1 -22.5,-12.3 -10.8,-13.8 -8.2,-33.8 5.6,-45.1 5.6,-4.1 54.8,-41.5 103.9,-34.8 16.9,2.6 29.7,17.4 28.7,34.3 -1.5,18.9 -18.9,31.7 -36.9,29.2 -17.4,-2.6 -45.6,13.8 -55.8,21.5 -7.7,6.1 -15.4,8.2 -23,7.2zM594.4,134.7c-21,-9.7 -45.1,-9.7 -65,-7.2 -17.4,2 -29.7,18.4 -27.1,35.8v1c2.6,16.9 17.9,28.7 34.8,26.6 11.3,-1.5 23.6,-1.5 31.2,2.6 16.4,8.2 36.9,1 44,-16.9 6.7,-16.4 -2,-34.8 -17.9,-42zM852.5,643.1c-4.1,-3.1 -71.7,-38.9 -73.7,-78.8 -1,-15.4 11.3,-31.7 12.8,-44 10.2,-66 -11.3,-133.1 -59.4,-187.4 -46.6,-53.2 -114.2,-88.6 -189.4,-99.8s-149,2.6 -209.4,39.4c-61.4,38.9 -101.4,96.3 -111.1,162.3 -19.5,128.5 81.4,253.4 230.4,284.2 2,0.5 80.9,-1 118.3,38.9 32.8,34.8 82.4,110.6 86.5,112.6 27.6,36.4 70.7,57.9 117.2,57.9 80.9,0 147.5,-66 147.5,-147.5 0,-46.6 -36.9,-111.6 -69.6,-137.7z" id="path_1"/></svg>