<svg id="vector" xmlns="http://www.w3.org/2000/svg" width="32" height="32" viewBox="0 0 1024 1024"><path fill="#000000" d="M608.3,893.4c-17.9,0 -31.7,-14.3 -31.7,-31.7V448c0,-7.7 3.1,-15.9 8.2,-21.5L793.6,192H230.4l209.4,234.5c5.1,5.6 8.2,13.3 8.2,21.5v288.8l50.7,41c13.8,11.3 15.9,31.2 4.6,45.1a31.8,31.8 0,0 1,-45.1 4.6l-63,-51.2c-7.7,-6.1 -11.8,-15.4 -11.8,-25.1v-291.8L135.2,181.2c-8.2,-9.2 -10.2,-23 -5.1,-34.3 5.1,-11.8 16.9,-18.9 29.2,-18.9H865.3c12.8,0 24.1,7.2 29.2,18.9 5.1,11.8 3.1,25.1 -5.6,34.3L640,460.3v400.9c0,17.9 -13.8,32.3 -31.7,32.3z" id="path_0"/></svg>