<svg id="vector" xmlns="http://www.w3.org/2000/svg" width="24" height="24" viewBox="0 0 48 48"><path fill="#000000" d="M29.344,30.476C31.748,29.977 33.929,29.111 35.625,27.839C38.52,25.668 40,22.314 40,19C40,16.675 39.119,14.505 37.593,12.667C36.743,11.642 39.229,4 37.02,5.029C34.811,6.058 31.571,8.337 29.873,7.834C28.055,7.296 26.073,7 24,7C22.199,7 20.468,7.223 18.853,7.634C16.505,8.232 14.259,6 12,5.029C9.741,4.058 10.974,11.963 10.303,12.794C8.841,14.605 8,16.729 8,19C8,22.314 9.791,25.668 12.686,27.839C14.615,29.286 17.034,30.208 19.74,30.662" fill-opacity="0" stroke-linecap="round" stroke="#333" stroke-width="4" id="path_0"/><path fill="#000000" d="M19.74,30.662C18.581,31.937 18.002,33.148 18.002,34.294C18.002,35.441 18.002,38.346 18.002,43.011" fill-opacity="0" stroke-linecap="round" stroke="#333" stroke-width="4" id="path_1"/><path fill="#000000" d="M29.345,30.477C30.442,31.917 30.991,33.211 30.991,34.358C30.991,35.504 30.991,38.389 30.991,43.011" fill-opacity="0" stroke-linecap="round" stroke="#333" stroke-width="4" id="path_2"/><path fill="#000000" d="M6,31.215C6.899,31.325 7.566,31.739 8,32.455C8.652,33.53 11.074,37.518 13.825,37.518C15.659,37.518 17.052,37.518 18.002,37.518" fill-opacity="0" stroke-linecap="round" stroke="#333" stroke-width="4" id="path_3"/></svg>