<svg id="vector" xmlns="http://www.w3.org/2000/svg" width="717.67" height="596.33" viewBox="0 0 717.67 596.33"><path fill="#3f3d56" d="M162.58,0L371.13,0A58.73,58.73 0,0 1,429.85 58.73L429.85,535.27A58.73,58.73 0,0 1,371.13 594L162.58,594A58.73,58.73 0,0 1,103.85 535.27L103.85,58.73A58.73,58.73 0,0 1,162.58 0z" id="path_0"/><path fill="#fff" d="M424.36,58.73v476.54a53.29,53.29 0,0 1,-53.23 53.23h-208.54a53.29,53.29 0,0 1,-53.23 -53.23v-476.54a53.29,53.29 0,0 1,53.23 -53.23h27.27v9.42a16.08,16.08 0,0 0,16.08 16.08h121.84a16.08,16.08 0,0 0,16.08 -16.08v-9.42h27.27A53.29,53.29 0,0 1,424.36 58.73Z" id="path_1"/><path fill="#f2f2f2" d="M335.14,262.12c-12.09,-5.45 -25.57,6.89 -16.6,18.43 -30.3,27.6 -75.28,37.31 -114.45,25.76 -0.97,2.33 -1.98,4.63 -3.02,6.94a283.88,283.88 0,0 1,-65.57 91.21c36.49,-30.35 81.45,-4.71 120.12,5.28a13.74,13.74 0,0 1,6.07 24.43,78.98 78.98,0 0,0 -15.21,-3.96 11.98,11.98 0,0 0,-10.65 19.92c-40.5,19.42 -90.89,12.26 -125.65,-15.63L110.18,417.92a285.22,285.22 0,0 0,85.49 -107.19,280.91 280.91,0 0,0 16.45,-45.93 266.99,266.99 0,0 0,8.32 -52.67c-6.66,-19.64 -5.55,-42.71 5.55,-60.54 4.58,8.32 17.79,10.48 19.17,-1.07 0.3,-4.66 0.52,-9.31 0.79,-13.95 49.77,-3.84 41.27,65.85 -19.62,76.75a280.22,280.22 0,0 1,-8.67 52.99c-0.42,1.73 -0.89,3.44 -1.39,5.15A119.04,119.04 0,0 1,258.81 235.44c16.08,-7.53 34.81,-9.14 52.67,-12.04C333.2,219.86 348.59,244.68 335.14,262.12Z" id="path_2"/><path fill="#3f3d56" d="M102.35,120.5a4,4 0,0 1,-4 -4v-8a4,4 0,0 1,8 0v8A4,4 0,0 1,102.35 120.5Z" id="path_3"/><path fill="#3f3d56" d="M102.35,161.52a4,4 0,0 1,-4 -4L98.35,135.5a4,4 0,0 1,8 0v22.02A4,4 0,0 1,102.35 161.52Z" id="path_4"/><path fill="#3f3d56" d="M102.35,194.5a4,4 0,0 1,-4 -4L98.35,168.48a4,4 0,0 1,8 0v22.02A4,4 0,0 1,102.35 194.5Z" id="path_5"/><path fill="#3f3d56" d="M430.35,176.5a4,4 0,0 1,-4 -4L426.35,118.77a4,4 0,0 1,8 0v53.73A4,4 0,0 1,430.35 176.5Z" id="path_6"/><path fill="#fff" d="M275.45,18.35h-31a2.5,2.5 0,0 1,0 -5h31a2.5,2.5 0,0 1,0 5Z" id="path_7"/><path fill="#fff" d="M291.45,15.85m-2,0a2,2 0,1 1,4 0a2,2 0,1 1,-4 0" id="path_8"/><path fill="#e6e6e6" d="M198.72,150.53L163.99,150.53a18.15,18.15 0,0 1,-18.13 -18.13L145.85,97.66a18.15,18.15 0,0 1,18.13 -18.13h34.73A18.15,18.15 0,0 1,216.85 97.66v34.73A18.15,18.15 0,0 1,198.72 150.53ZM163.99,81.53A16.15,16.15 0,0 0,147.85 97.66v34.73a16.15,16.15 0,0 0,16.13 16.13h34.73a16.15,16.15 0,0 0,16.13 -16.13L214.85,97.66a16.15,16.15 0,0 0,-16.13 -16.13Z" id="path_9"/><path fill="#e6e6e6" d="M284.22,151.03L249.49,151.03a18.15,18.15 0,0 1,-18.13 -18.13L231.35,98.16a18.15,18.15 0,0 1,18.13 -18.13h34.73A18.15,18.15 0,0 1,302.35 98.16v34.73A18.15,18.15 0,0 1,284.22 151.03ZM249.49,82.03A16.15,16.15 0,0 0,233.35 98.16v34.73a16.15,16.15 0,0 0,16.13 16.13h34.73a16.15,16.15 0,0 0,16.13 -16.13L300.35,98.16a16.15,16.15 0,0 0,-16.13 -16.13Z" id="path_10"/><path fill="#e6e6e6" d="M369.72,151.53L334.99,151.53a18.15,18.15 0,0 1,-18.13 -18.13L316.85,98.66a18.15,18.15 0,0 1,18.13 -18.13h34.73A18.15,18.15 0,0 1,387.85 98.66v34.73A18.15,18.15 0,0 1,369.72 151.53ZM334.99,82.53A16.15,16.15 0,0 0,318.85 98.66v34.73a16.15,16.15 0,0 0,16.13 16.13h34.73a16.15,16.15 0,0 0,16.13 -16.13L385.85,98.66a16.15,16.15 0,0 0,-16.13 -16.13Z" id="path_11"/><path fill="#e6e6e6" d="M198.72,249.53L163.99,249.53a18.15,18.15 0,0 1,-18.13 -18.13L145.85,196.66a18.15,18.15 0,0 1,18.13 -18.13h34.73A18.15,18.15 0,0 1,216.85 196.66v34.73A18.15,18.15 0,0 1,198.72 249.53ZM163.99,180.53A16.15,16.15 0,0 0,147.85 196.66v34.73a16.15,16.15 0,0 0,16.13 16.13h34.73a16.15,16.15 0,0 0,16.13 -16.13L214.85,196.66a16.15,16.15 0,0 0,-16.13 -16.13Z" id="path_12"/><path fill="#e6e6e6" d="M284.22,250.03L249.49,250.03a18.15,18.15 0,0 1,-18.13 -18.13L231.35,197.16a18.15,18.15 0,0 1,18.13 -18.13h34.73A18.15,18.15 0,0 1,302.35 197.16v34.73A18.15,18.15 0,0 1,284.22 250.03ZM249.49,181.03A16.15,16.15 0,0 0,233.35 197.16v34.73a16.15,16.15 0,0 0,16.13 16.13h34.73a16.15,16.15 0,0 0,16.13 -16.13L300.35,197.16a16.15,16.15 0,0 0,-16.13 -16.13Z" id="path_13"/><path fill="#e6e6e6" d="M369.72,250.53L334.99,250.53a18.15,18.15 0,0 1,-18.13 -18.13L316.85,197.66a18.15,18.15 0,0 1,18.13 -18.13h34.73A18.15,18.15 0,0 1,387.85 197.66v34.73A18.15,18.15 0,0 1,369.72 250.53ZM334.99,181.53A16.15,16.15 0,0 0,318.85 197.66v34.73a16.15,16.15 0,0 0,16.13 16.13h34.73a16.15,16.15 0,0 0,16.13 -16.13L385.85,197.66a16.15,16.15 0,0 0,-16.13 -16.13Z" id="path_14"/><path fill="#465CFF" d="M198.72,549.53L163.99,549.53a17.15,17.15 0,0 1,-17.13 -17.13L146.85,497.66a17.15,17.15 0,0 1,17.13 -17.13L198.72,480.53a17.15,17.15 0,0 1,17.13 17.13v34.73A17.15,17.15 0,0 1,198.72 549.53Z" id="path_15"/><path fill="#e6e6e6" d="M284.22,550.03L249.49,550.03a17.15,17.15 0,0 1,-17.13 -17.13L232.35,498.16a17.15,17.15 0,0 1,17.13 -17.13L284.22,481.03a17.15,17.15 0,0 1,17.13 17.13v34.73A17.15,17.15 0,0 1,284.22 550.03Z" id="path_16"/><path fill="#e6e6e6" d="M369.72,550.53L334.99,550.53a17.15,17.15 0,0 1,-17.13 -17.13L317.85,498.66a17.15,17.15 0,0 1,17.13 -17.13L369.72,481.53a17.15,17.15 0,0 1,17.13 17.13v34.73A17.15,17.15 0,0 1,369.72 550.53Z" id="path_17"/><path fill="#ccc" d="M248.85,447.03m-5,0a5,5 0,1 1,10 0a5,5 0,1 1,-10 0" id="path_18"/><path fill="#e6e6e6" d="M266.85,447.03m-5,0a5,5 0,1 1,10 0a5,5 0,1 1,-10 0" id="path_19"/><path fill="#e6e6e6" d="M284.85,447.03m-5,0a5,5 0,1 1,10 0a5,5 0,1 1,-10 0" id="path_20"/><path fill="#e6e6e6" d="M386.44,561.03L147.54,561.03a20.57,20.57 0,0 1,-20.55 -20.55L126.99,489.58a20.57,20.57 0,0 1,20.55 -20.55L386.44,469.03a20.57,20.57 0,0 1,20.55 20.55v50.91A20.57,20.57 0,0 1,386.44 561.03ZM147.54,471.03a18.57,18.57 0,0 0,-18.55 18.55v50.91a18.57,18.57 0,0 0,18.55 18.55L386.44,559.03a18.57,18.57 0,0 0,18.55 -18.55L404.99,489.58a18.57,18.57 0,0 0,-18.55 -18.55Z" id="path_21"/><path fill="#ffb6b6" d="M594.12,129.69a7.74,7.74 0,0 0,-6.5 8.63,7.43 7.43,0 0,0 0.27,1.2l-21.5,16.36 4.47,13.83 27.03,-25.6a7.72,7.72 0,0 0,4.76 -8.14,7.39 7.39,0 0,0 -8.33,-6.31Q594.22,129.67 594.12,129.69Z" id="path_22"/><path fill="#3f3d56" d="M445.82,205.56v0a13,13 0,0 0,13.19 12.47l40.59,-0.62L550.93,193.6s16.74,-14.21 21.4,-14.54 7.15,4.01 6.09,0.04 -2.46,-6.62 1.13,-6.25 3.02,-6.95 3.81,-9.71 -10.12,-12.75 -10.12,-12.75 -7.86,0.15 -8.38,1.18 1.28,3.64 -2.95,3.52 -7.45,0.07 -7.58,2.03 0.18,3.49 -2.17,5.01 -12.91,9.35 -12.91,9.35L455.66,192.41A13,13 0,0 0,445.82 205.56Z" id="path_23"/><path fill="#ffb6b6" d="M467.55,574.79l11.04,0l5.25,-42.57l-16.29,0l0,42.57z" id="path_24"/><path fill="#2f2e41" d="M463.95,567.23l17.63,-1.05v7.56l16.77,11.58a4.72,4.72 0,0 1,-2.68 8.6L474.68,593.92l-3.62,-7.47 -1.41,7.47 -7.92,0Z" id="path_25"/><path fill="#ffb6b6" d="M485.99,302.03l6,-37l-42,-10l0,38.33l36,8.67z" id="path_26"/><path fill="#2f2e41" d="M433.49,337.53 L454.02,471.01s-1.21,58.01 8.13,71.27l2.34,14.26h21.07s-0.39,-8.76 1.77,-13.88 5.16,-1.73 2.16,-6.43 -3.32,-4.18 -2.16,-7.94 1.84,-174.24 1.84,-174.24Z" id="path_27"/><path fill="#ffb6b6" d="M446,509.24l6.4,9l37.74,-20.39l-9.44,-13.28l-34.7,24.67z" id="path_28"/><path fill="#2f2e41" d="M450.07,501.92 L461.15,515.69l-6.16,4.38 0.28,20.37a4.72,4.72 0,0 1,-8.57 2.8L434.54,526.13l3.99,-7.28 -6.91,3.18 -4.59,-6.45Z" id="path_29"/><path fill="#2f2e41" d="M447.99,271.03l-0.29,15.49s-37.96,33.31 -9.34,73.91c0,0 3.61,11.69 8.61,11.15s7.56,2.25 6.28,4.85S500.65,410.7 500.65,410.7s-32.07,70.71 -39.66,86.33l5,16s-2.65,6.19 1.43,3.84 2.07,-2.66 6.57,-3.5 10.05,-2.77 9.78,-3.8 55.99,-88.08 55.99,-88.08 13.48,-14.34 3.61,-31.15c-1.37,-0.31 -1.41,0 -1.41,0l-48.25,-54.94 -5.72,-36.36Z" id="path_30"/><path fill="#3f3d56" d="M491.39,171.76 L467.09,160.36l-7.28,12.66s-19.54,27.89 -19.83,48 3.18,26.1 3.18,26.1 -8.43,6.3 -4.21,10.15 13.54,5.51 6.38,7.18 -5.35,18.57 2.65,21.57 50.96,2.97 50.96,2.97a7.65,7.65 0,0 1,1.89 -7.53c3.33,-3.34 6.33,-0.94 3.33,-6.14s-8,-2.2 -4,-9.2 4,-9.09 4,-9.09 9.74,-16.8 -4.13,-32.35 -0.12,-1.07 -0.12,-1.07l-9.92,-33.24Z" id="path_31"/><path fill="#465CFF" d="M589.85,270.03L555.12,270.03a17.15,17.15 0,0 1,-17.13 -17.13L537.99,218.16a17.15,17.15 0,0 1,17.13 -17.13h34.73a17.15,17.15 0,0 1,17.13 17.13v34.73A17.15,17.15 0,0 1,589.85 270.03Z" id="path_32"/><path fill="#465CFF" d="M607.85,138.03L573.12,138.03a17.15,17.15 0,0 1,-17.13 -17.13L555.99,86.16a17.15,17.15 0,0 1,17.13 -17.13h34.73a17.15,17.15 0,0 1,17.13 17.13v34.73A17.15,17.15 0,0 1,607.85 138.03Z" id="path_33"/><path fill="#2f2e41" d="M513.86,158.51l0.02,-0a4.26,4.26 0,0 0,3.73 -4.73l-2.78,-23.59a31.75,31.75 0,0 0,-3.94 -12.01,32.26 32.26,0 0,0 -18.83,-14.94 31.77,31.77 0,0 0,-12.69 -1.09c-17.43,2.03 -22.91,6.92 -27.88,35.23s2.79,23.63 2.79,23.63a4.26,4.26 0,0 0,0.53 1.62,4.33 4.33,0 0,0 2.54,2.01 4.28,4.28 0,0 0,1.7 0.15c21.29,0.81 42.82,1.85 54.83,-6.26Z" id="path_34"/><path fill="#ffb6b6" d="M467.93,127.51A23.42,23.42 0,0 0,498.77 157.84a23.15,23.15 0,0 0,12.52 -12.71,23.42 23.42,0 0,0 -30.82,-30.32 23.14,23.14 0,0 0,-12.54 12.7Z" id="path_35"/><path fill="#2f2e41" d="M522.54,131.22a25.11,25.11 0,0 0,-3.12 -9.5c-1.87,-7.63 -5.59,-14.1 -14.89,-11.81a25.13,25.13 0,0 0,-9.97 -0.87l-4.72,0.53q-0.08,0.01 -0.16,0.02a25.07,25.07 0,0 0,-21.95 27.85l0.06,0.47 9.99,-1.14 2.28,-9.92 1.81,9.45 5.16,-0.59 1.15,-5 0.91,4.77c8.92,5.01 20.38,2.92 33.49,-3.8Z" id="path_36"/><path fill="#2f2e41" d="M495.92,159.87a4.19,4.19 0,0 1,0.09 2.3,4.28 4.28,0 0,1 -0.43,1.11 4.33,4.33 0,0 1,-0.6 0.82,4.25 4.25,0 0,1 -2.62,1.32q-0.09,0.01 -0.19,0.02t-0.19,0.01q-0.1,0 -0.19,0t-0.19,-0.01l-3.62,-0.23 -6.11,-9.86 1.13,9.56 -16.46,-1 -4.78,-40.55 27.04,-3.06 -0.58,0.85a18.72,18.72 0,0 0,-3.13 9.64,30.51 30.51,0 0,0 1.41,10.28 55.02,55.02 0,0 0,4.06 9.73,81.08 81.08,0 0,0 4.84,7.98A4.28,4.28 0,0 1,495.92 159.87Z" id="path_37"/><path fill="#ffb6b6" d="M559.57,197.31a7.74,7.74 0,0 0,-4.44 9.85,7.43 7.43,0 0,0 0.53,1.11L538.29,228.96l7.4,12.51 20.73,-30.92a7.72,7.72 0,0 0,2.85 -8.99,7.39 7.39,0 0,0 -9.52,-4.32Q559.66,197.27 559.57,197.31Z" id="path_38"/><path fill="#3f3d56" d="M468.59,193.16l0,0a13.37,13.37 0,0 0,-5.75 19.4l16.65,25.97 39,35s32,-23 33,-31 -2,-10 1,-8 6,1 5,0 -0.61,-1.06 0.2,-2.53 3.8,-8.47 3.8,-8.47l-10.63,-10.5s-11.37,5.5 -12.37,8.5 3,2 -1,3 -9.34,-3.54 -5.17,1.23 3.83,6.84 0,6.8 -10.83,9.96 -10.83,9.96l-37,-45.61A13.37,13.37 0,0 0,468.59 193.16Z" id="path_39"/><path fill="#f2f2f2" d="M587.75,570.04a3.56,3.56 0,0 0,2.52 -6.2c-0.09,-0.36 -0.16,-0.61 -0.25,-0.97a9.57,9.57 0,0 1,17.75 -0.34c4.32,9.85 9.88,20.03 7.27,30.94 17.59,-38.23 11.04,-85.51 -15.81,-117.8 -7.37,-3.97 -13.39,-11.09 -15.01,-19.41 3.64,1.2 8.14,-1.8 5.37,-5.6 -1.2,-1.45 -2.41,-2.89 -3.6,-4.34 13.65,-14.82 30.3,8.11 15.31,28.07a114.26,114.26 0,0 1,13.02 19.95,48.04 48.04,0 0,1 2.66,-22.34c2.68,-6.65 7.77,-12.28 12.25,-18.04 5.44,-7.03 16.81,-3.92 17.64,4.93 -5.07,1.72 -5.66,9.07 0.17,10.02 -1.37,16.48 -11.98,31.72 -26.73,39.08a114.71,114.71 0,0 1,6.72 47.89c2.43,-19.01 22.77,-23.81 36.94,-31.49a5.55,5.55 0,0 1,8.52 5.54,32.05 32.05,0 0,0 -5.59,3.02 4.84,4.84 0,0 0,2.33 8.82c-7.01,17.84 -25.46,29.95 -44.53,30.06a117.93,117.93 0,0 1,-7.7 23.2l-28.3,0.27c-0.1,-0.31 -0.2,-0.64 -0.29,-0.95a32.15,32.15 0,0 0,7.83 -0.54c-7.01,-8.14 -12.41,-12.27 -8.48,-23.77Z" id="path_40"/><path fill="#ccc" d="M0,595.14a1.19,1.19 0,0 0,1.19 1.19h715.29a1.19,1.19 0,0 0,0 -2.38L1.19,593.95A1.19,1.19 0,0 0,0 595.14Z" id="path_41"/><path fill="#e6e6e6" d="M177.94,29.07h-27a5,5 0,0 1,0 -10h27a5,5 0,0 1,0 10Z" id="path_42"/><path fill="#e6e6e6" d="M354.94,24.07m-4.5,0a4.5,4.5 0,1 1,9 0a4.5,4.5 0,1 1,-9 0" id="path_43"/><path fill="#e6e6e6" d="M368.94,24.07m-4.5,0a4.5,4.5 0,1 1,9 0a4.5,4.5 0,1 1,-9 0" id="path_44"/><path fill="#e6e6e6" d="M382.94,24.07m-4.5,0a4.5,4.5 0,1 1,9 0a4.5,4.5 0,1 1,-9 0" id="path_45"/><path fill="#ccc" d="M209.44,184.57m-12,0a12,12 0,1 1,24 0a12,12 0,1 1,-24 0" id="path_46"/><path fill="#ccc" d="M296.44,488.57m-12,0a12,12 0,1 1,24 0a12,12 0,1 1,-24 0" id="path_47"/><path fill="#e6e6e6" d="M198.72,348.53L163.99,348.53a18.15,18.15 0,0 1,-18.13 -18.13L145.85,295.66a18.15,18.15 0,0 1,18.13 -18.13h34.73A18.15,18.15 0,0 1,216.85 295.66v34.73A18.15,18.15 0,0 1,198.72 348.53ZM163.99,279.53A16.15,16.15 0,0 0,147.85 295.66v34.73a16.15,16.15 0,0 0,16.13 16.13h34.73a16.15,16.15 0,0 0,16.13 -16.13L214.85,295.66a16.15,16.15 0,0 0,-16.13 -16.13Z" id="path_48"/><path fill="#e6e6e6" d="M284.22,349.03L249.49,349.03a18.15,18.15 0,0 1,-18.13 -18.13L231.35,296.16a18.15,18.15 0,0 1,18.13 -18.13h34.73A18.15,18.15 0,0 1,302.35 296.16v34.73A18.15,18.15 0,0 1,284.22 349.03ZM249.49,280.03A16.15,16.15 0,0 0,233.35 296.16v34.73a16.15,16.15 0,0 0,16.13 16.13h34.73a16.15,16.15 0,0 0,16.13 -16.13L300.35,296.16a16.15,16.15 0,0 0,-16.13 -16.13Z" id="path_49"/><path fill="#e6e6e6" d="M369.72,349.53L334.99,349.53a18.15,18.15 0,0 1,-18.13 -18.13L316.85,296.66a18.15,18.15 0,0 1,18.13 -18.13h34.73A18.15,18.15 0,0 1,387.85 296.66v34.73A18.15,18.15 0,0 1,369.72 349.53ZM334.99,280.53A16.15,16.15 0,0 0,318.85 296.66v34.73a16.15,16.15 0,0 0,16.13 16.13h34.73a16.15,16.15 0,0 0,16.13 -16.13L385.85,296.66a16.15,16.15 0,0 0,-16.13 -16.13Z" id="path_50"/><path fill="#ccc" d="M296.44,285.57m-12,0a12,12 0,1 1,24 0a12,12 0,1 1,-24 0" id="path_51"/></svg>