<svg id="vector" xmlns="http://www.w3.org/2000/svg" width="256" height="256" viewBox="0 0 1024 1024"><path fill="#465CFF" d="M900.9,775.1L867.8,226.6c-3.4,-56.7 -50.4,-101 -107.2,-101L265.2,125.6c-56.8,0 -103.8,44.2 -107.2,101L124.9,775.1c-3.7,61.7 45.4,113.9 107.2,113.9h561.6c61.8,0.1 111,-52.1 107.2,-113.9zM734.5,359.5c-13.5,110.4 -107.7,196.1 -221.6,196.1 -113.9,0 -208.2,-85.8 -221.6,-196.1 -14.8,-11.4 -24.5,-29.2 -24.5,-49.4 0,-34.4 27.9,-62.2 62.2,-62.2s62.2,27.9 62.2,62.2c0,18.4 -8,34.9 -20.7,46.2 11.5,68.2 70.9,120.3 142.3,120.3s130.9,-52.1 142.3,-120.3a61.8,61.8 0,0 1,-20.7 -46.2c0,-34.4 27.9,-62.2 62.2,-62.2s62.2,27.9 62.2,62.2c0.1,20.1 -9.6,38 -24.4,49.4z" id="path_0"/><path fill="#5A6FFF" d="M867.8,226.6c-3.4,-56.7 -50.4,-101 -107.2,-101L265.2,125.6c-56.8,0 -103.8,44.2 -107.2,101L124.9,775.1c-3.7,61.7 45.4,113.9 107.2,113.9h238.2c213.4,-75.5 373.3,-264.2 407.6,-493.9l-10.1,-168.5zM734.5,359.5c-13.5,110.4 -107.7,196.1 -221.6,196.1 -113.9,0 -208.2,-85.8 -221.6,-196.1 -14.8,-11.4 -24.5,-29.2 -24.5,-49.4 0,-34.4 27.9,-62.2 62.2,-62.2s62.2,27.9 62.2,62.2c0,18.4 -8,34.9 -20.7,46.2 11.5,68.2 70.9,120.3 142.3,120.3s130.9,-52.1 142.3,-120.3a61.8,61.8 0,0 1,-20.7 -46.2c0,-34.4 27.9,-62.2 62.2,-62.2s62.2,27.9 62.2,62.2c0.1,20.1 -9.6,38 -24.4,49.4z" id="path_1"/><path fill="#6D84FF" d="M496.1,554.9c-106.3,-7.9 -192.1,-90.6 -204.8,-195.5 -14.8,-11.4 -24.5,-29.2 -24.5,-49.4 0,-34.4 27.9,-62.2 62.2,-62.2s62.2,27.9 62.2,62.2c0,18.4 -8,34.9 -20.7,46.2 11.5,68.2 70.9,120.3 142.3,120.3 29,0 55.9,-8.7 78.5,-23.4 23.2,-31.2 43.6,-64.6 60.8,-99.8 -10.9,-11.2 -17.7,-26.4 -17.7,-43.3 0,-32.8 25.3,-59.5 57.5,-62 10.9,-39.4 18.1,-80.4 21,-122.5H265.2c-56.8,0 -103.8,44.2 -107.2,101l-28.7,476c139.7,-8.1 266.9,-62.3 366.8,-147.6z" id="path_2"/><path fill="#8099FF" d="M293,370.9c-0.7,-3.8 -1.2,-7.6 -1.7,-11.4 -14.8,-11.4 -24.5,-29.2 -24.5,-49.4 0,-34.4 27.9,-62.2 62.2,-62.2 27,0 50,17.3 58.6,41.4 45.5,-47.9 83.3,-103.1 111.8,-163.6H265.2c-56.8,0 -103.8,44.2 -107.2,101l-13.3,221c53.1,-18.9 103,-44.9 148.3,-76.7z" id="path_3"/></svg>