<svg id="vector" xmlns="http://www.w3.org/2000/svg" width="32" height="32" viewBox="0 0 1024 1024"><path fill="#000000" d="M504.3,451.1m-85.5,0a85.5,85.5 0,1 0,171 0,85.5 85.5,0 1,0 -171,0Z" id="path_0"/><path fill="#000000" d="M504.3,110.6c-196.6,0 -356.4,159.7 -356.4,356.4 0,136.2 99.3,222.7 187.4,313.9 30.2,31.2 103.4,99.3 143.4,136.2 14.8,13.3 37.4,13.3 52.2,0 39.4,-36.4 112.6,-104.4 142.8,-136.2 90.1,-93.2 187.4,-178.7 187.4,-313.9 -0.5,-196.6 -160.3,-356.4 -356.9,-356.4zM504.3,600.6c-82.4,0 -149.5,-67.1 -149.5,-149.5S421.9,302.1 504.3,302.1s149.5,66.6 149.5,149 -67.1,149.5 -149.5,149.5z" id="path_1"/></svg>