<svg id="vector" xmlns="http://www.w3.org/2000/svg" width="32" height="32" viewBox="0 0 1024 1024"><path fill="#000000" d="M416.8,517.1h-128c-17.9,0 -31.7,-14.3 -31.7,-31.7 0,-17.9 14.3,-31.7 31.7,-31.7h95.7L384.5,356.9c0,-17.9 14.3,-31.7 31.7,-31.7s31.7,14.3 31.7,31.7v128c0.5,17.9 -13.8,32.3 -31.2,32.3zM702,667.1c-62,0 -113.7,43.5 -127.5,101.4L451.1,768.5c-13.8,-57.9 -65.5,-101.4 -127.5,-101.4 -72.2,0 -131.1,58.9 -131.1,131.1 0,72.2 58.9,131.1 131.1,131.1 60.4,0 110.6,-41.5 126,-96.8h126.5c15.4,55.8 65.5,96.8 126,96.8 72.2,0 131.1,-58.9 131.1,-131.1s-58.4,-131.1 -131.1,-131.1zM323.6,865.3c-36.9,0 -67.1,-30.2 -67.1,-67.1 0,-36.9 30.2,-67.1 67.1,-67.1s67.1,30.2 67.1,67.1c0,36.9 -29.7,67.1 -67.1,67.1zM702,864.8c-36.9,0 -67.1,-30.2 -67.1,-67.1s30.2,-67.1 67.1,-67.1 67.1,30.2 67.1,67.1 -29.7,67.1 -67.1,67.1z" id="path_0"/><path fill="#000000" d="M864.3,141.8H399.9c-44,0 -79.9,35.8 -79.9,79.9v7.2c0,17.9 -10.2,33.8 -26.1,42L125.4,355.8c-1.5,0.5 -2.6,1.5 -4.1,2.6 -36.4,25.6 -56.3,65 -56.3,111.6v320.5c0,17.4 13.3,32.8 31.2,33.3 17.9,0.5 32.8,-13.8 32.8,-31.7v-322.6c0,-25.1 9.2,-44.5 27.1,-57.9l209.9,-105.5c1.5,-0.5 2.6,-2 3.6,-3.1 0.5,0 0.5,-0.5 1,-0.5 3.1,-2 5.6,-5.1 7.7,-8.2 1,-1.5 2,-3.1 3.1,-5.1 1,-2 1,-4.6 1.5,-6.7 0,-1.5 1,-3.1 1,-4.6v-56.3c0,-8.7 7.2,-15.9 15.9,-15.9h464.4c17.4,0 31.7,14.8 31.7,32.3v544.8c0,17.4 13.3,32.8 31.2,33.3 17.9,0.5 32.8,-13.8 32.8,-31.7V238.6c0,-53.2 -43,-96.8 -95.7,-96.8z" id="path_1"/></svg>