<svg id="vector" xmlns="http://www.w3.org/2000/svg" width="80" height="80" viewBox="0 0 80 80"><defs><linearGradient gradientUnits="userSpaceOnUse" x1="77.635" y1="0" x2="77.635" y2="72.447" id="gradient_0"><stop stop-color="#606060" stop-opacity="0" offset="0"/><stop stop-color="#606060" stop-opacity="0.2980392156862745" offset="1"/></linearGradient><linearGradient gradientUnits="userSpaceOnUse" x1="40" y1="6.939" x2="40" y2="72.503" id="gradient_1"><stop stop-color="#606060" offset="0"/><stop stop-color="#606060" stop-opacity="0.2980392156862745" offset="1"/></linearGradient></defs><path fill="url(#gradient_0)" d="M40,0C62.091,0 80,17.909 80,40C80,62.091 62.091,80 40,80L40,73C58.225,73 73,58.225 73,40C73,21.775 58.225,7 40,7L40,0Z" fill-opacity="0.9" stroke="#000000" stroke-opacity="0" stroke-width="1" fill-rule="evenodd" id="path_0"/><path fill="url(#gradient_1)" d="M40,0L40,7C21.775,7 7,21.775 7,40C7,58.225 21.775,73 40,73L40,80C17.909,80 0,62.091 0,40C0,17.909 17.909,0 40,0Z" fill-opacity="0.9" stroke="#000000" stroke-opacity="0" stroke-width="1" fill-rule="evenodd" id="path_1"/><path fill="#606060" d="M40.5,3.5m-3.5,0a3.5,3.5 0,1 1,7 0a3.5,3.5 0,1 1,-7 0" fill-opacity="0.9" stroke="#000000" stroke-opacity="0" stroke-width="1" fill-rule="evenodd" id="path_2"/></svg>