<svg id="vector" xmlns="http://www.w3.org/2000/svg" width="32" height="32" viewBox="0 0 1024 1024"><path fill="#000000" d="M421.4,480.3L154.6,480.3c-32.3,0 -58.4,-26.1 -58.4,-58.4L96.3,154.6c0,-32.3 26.1,-58.4 58.4,-58.4h267.3c32.3,0 58.4,26.1 58.4,58.4v267.3c0,31.7 -26.6,58.4 -58.9,58.4zM385,160.3L191,160.3c-17.4,0 -31.2,13.8 -31.2,31.2v193.5c0,17.4 13.8,31.2 31.2,31.2h193.5c17.4,0 31.2,-13.8 31.2,-31.2L415.7,191c0.5,-16.9 -13.8,-30.7 -30.7,-30.7zM421.4,928.3L154.6,928.3c-32.3,0 -58.4,-26.1 -58.4,-58.4v-267.3c0,-32.3 26.1,-58.4 58.4,-58.4h267.3c32.3,0 58.4,26.1 58.4,58.4v267.3c0,31.7 -26.6,58.4 -58.9,58.4zM385,608.3L191,608.3c-17.4,0 -31.2,13.8 -31.2,31.2v193.5c0,17.4 13.8,31.2 31.2,31.2h193.5c17.4,0 31.2,-13.8 31.2,-31.2v-193.5c0.5,-17.4 -13.8,-31.2 -30.7,-31.2zM868.9,480.3h-266.8c-32.3,0 -58.4,-26.1 -58.4,-58.4L543.7,154.1c0,-32.3 26.1,-58.4 58.4,-58.4h267.3c32.3,0 58.4,26.1 58.4,58.4v267.3c0,31.7 -26.6,58.9 -58.9,58.9zM832.5,159.7h-194c-17.4,0 -31.2,13.8 -31.2,31.2v193.5c0,17.4 13.8,31.2 31.2,31.2h193.5c17.4,0 31.2,-13.8 31.2,-31.2L863.2,190.5c0.5,-16.9 -13.8,-30.7 -30.7,-30.7zM868.9,928.3h-266.8c-32.3,0 -58.4,-26.1 -58.4,-58.4v-267.3c0,-32.3 26.1,-58.4 58.4,-58.4h267.3c32.3,0 58.4,26.1 58.4,58.4v267.3c0,31.7 -26.6,58.4 -58.9,58.4zM832.5,608.3h-194c-17.4,0 -31.2,13.8 -31.2,31.2v193.5c0,17.4 13.8,31.2 31.2,31.2h193.5c17.4,0 31.2,-13.8 31.2,-31.2v-193.5c0.5,-17.9 -13.8,-31.2 -30.7,-31.2z" id="path_0"/></svg>