<svg id="vector" xmlns="http://www.w3.org/2000/svg" width="32" height="32" viewBox="0 0 1024 1024"><path fill="#000000" d="M887.8,899.1c-25.6,-133.6 -117.2,-238.6 -238.1,-287.2 28.7,-16.4 54.3,-37.9 75.8,-63 1,-1 2,-2.6 3.1,-4.1 0.5,-0.5 1,-1.5 1.5,-2 31.7,-38.9 53.2,-86 60.9,-137.2V404.5c1.5,-8.7 2,-17.9 2.6,-26.6v-3.1c0,-4.6 0.5,-8.7 0.5,-13.3 0,-160.3 -128,-288.3 -288.3,-288.3 -160.3,0 -288.3,128 -288.3,288.3 0,4.6 0,8.7 0.5,13.3v3.1c0.5,9.2 1.5,17.9 2.6,26.6v1c7.7,51.2 29.2,98.8 60.9,137.2 0.5,0.5 1,1.5 1.5,2 1,1.5 2,2.6 3.1,4.1 21.5,25.1 47.1,46.6 75.8,63 -120.8,48.1 -212.5,153.6 -238.1,287.2 -3.1,15.9 6.7,35.3 25.6,38.4h712.2c19.5,-3.1 29.2,-22 26.1,-38.4z" id="path_0"/></svg>