<svg id="vector" xmlns="http://www.w3.org/2000/svg" width="32" height="32" viewBox="0 0 1024 1024"><path fill="#000000" d="M896,233h-288.3c-17.9,0 -32.3,-14.3 -32.3,-32.3s14.3,-32.3 32.3,-32.3L896,168.4c17.9,0 32.3,14.3 32.3,32.3s-14.3,32.3 -32.3,32.3zM896,413.7h-288.3c-17.9,0 -32.3,-14.3 -32.3,-32.3s14.3,-32.3 32.3,-32.3L896,349.2c17.9,0 32.3,14.3 32.3,32.3s-14.3,32.3 -32.3,32.3zM896,678.4h-288.3c-17.9,0 -32.3,-14.3 -32.3,-31.7s14.3,-32.3 32.3,-32.3L896,614.4c17.9,0 32.3,14.3 32.3,32.3s-14.3,31.7 -32.3,31.7zM896,859.1h-288.3c-17.9,0 -32.3,-14.3 -32.3,-32.3s14.3,-32.3 32.3,-32.3L896,794.6c17.9,0 32.3,14.3 32.3,32.3s-14.3,32.3 -32.3,32.3zM427,480.3L149,480.3c-29.2,0 -53.2,-24.1 -53.2,-53.2L95.7,149c0,-29.2 24.1,-53.2 53.2,-53.2h277.5c29.2,0 53.2,24.1 53.2,53.2v277.5c0.5,29.7 -23.6,53.8 -52.7,53.8zM385.5,160.3h-194.6c-16.9,0 -30.7,13.8 -30.7,30.7v194.6c0,16.9 13.8,30.7 30.7,30.7h194.6c16.9,0 30.7,-13.8 30.7,-30.7v-194.6c0,-17.4 -13.8,-30.7 -30.7,-30.7zM427,928.3L149,928.3c-29.2,0 -53.2,-24.1 -53.2,-53.2v-277.5c0,-29.2 24.1,-53.2 53.2,-53.2h277.5c29.2,0 53.2,24.1 53.2,53.2v277.5c0.5,29.2 -23.6,53.2 -52.7,53.2zM385.5,608.3h-194.6c-16.9,0 -30.7,13.8 -30.7,30.7v194.6c0,16.9 13.8,30.7 30.7,30.7h194.6c16.9,0 30.7,-13.8 30.7,-30.7v-194.6c0,-17.4 -13.8,-30.7 -30.7,-30.7z" id="path_0"/></svg>