<svg id="vector" xmlns="http://www.w3.org/2000/svg" width="32" height="32" viewBox="0 0 1024 1024"><path fill="#000000" d="M799.7,96.8L223.7,96.8C171,96.8 128,139.8 128,192.5v640c0,52.7 43,95.7 95.7,95.7h576.5c52.7,0 95.7,-43.5 95.2,-95.7v-640c0,-52.7 -43,-95.7 -95.7,-95.7zM734.7,735.7L287.7,735.7c-17.9,0 -31.7,-14.3 -31.7,-31.7 0,-17.9 14.3,-31.7 31.7,-31.7h447.5c17.9,0 31.7,14.3 31.7,31.7 0,17.4 -14.3,31.7 -32.3,31.7zM287.7,481.3L670.7,481.3c17.9,0 31.7,14.3 31.7,31.7 0.5,17.4 -13.8,31.7 -31.7,31.7L287.7,544.8c-17.9,0 -31.7,-14.3 -31.7,-31.7 0,-17.9 14.3,-31.7 31.7,-31.7zM256,322c0,-17.9 14.3,-31.7 31.7,-31.7h156.2c17.9,0 31.7,14.3 31.7,31.7s-14.3,31.7 -32.3,31.7L287.7,353.8c-17.9,0 -31.7,-14.3 -31.7,-31.7zM523.8,322c0,-17.9 14.3,-31.7 31.7,-31.7h30.2c17.9,0 31.7,14.3 31.7,31.7s-14.3,31.7 -31.7,31.7h-30.2c-17.9,0 -31.7,-14.3 -31.7,-31.7zM659.5,322c0,-17.9 14.3,-31.7 31.7,-31.7 17.9,0 31.7,14.3 31.7,31.7 0.5,17.4 -13.8,31.7 -31.7,31.7s-31.7,-14.3 -31.7,-31.7z" id="path_0"/></svg>