<svg id="vector" xmlns="http://www.w3.org/2000/svg" width="32" height="32" viewBox="0 0 1024 1024"><path fill="#000000" d="M799.7,900.6h-640c-53.2,0 -96.3,-43 -96.3,-96.3v-578.6c0,-53.2 43,-96.3 96.3,-96.3h642.6c53.2,0 96.3,43 96.3,96.3v92.7c0,17.4 -13.3,32.8 -31.2,33.3 -17.9,0.5 -32.8,-13.8 -32.8,-31.7V225.8c0,-17.9 -14.3,-32.3 -32.3,-32.3H159.7c-17.4,0 -32.3,14.3 -32.3,32.3v578.6c0,17.9 14.3,32.3 32.3,32.3h639.5c17.9,0 32.3,-14.3 32.3,-32.3V706.6c0,-17.4 13.3,-32.8 31.2,-33.3 17.9,-0.5 32.8,13.8 32.8,31.7V803.8c0,53.8 -43,96.8 -95.7,96.8z" id="path_0"/><path fill="#000000" d="M630.3,514c0,17.4 13.8,31.2 31.2,31.2 17.4,0 31.2,-13.8 31.2,-31.2 0,-17.4 -13.8,-31.2 -31.2,-31.2 -17.4,0 -31.2,13.8 -31.2,31.2z" id="path_1"/><path fill="#000000" d="M896,640h-320c-35.3,0 -64,-28.7 -64,-64v-128c0,-35.3 28.7,-64 64,-64L896,384c35.3,0 64,28.7 64,64v128c0,35.3 -28.7,64 -64,64zM576,470.5L576,553c0,12.8 10.2,22.5 22.5,22.5h274.4c12.8,0 22.5,-10.2 22.5,-22.5L895.5,470.5c0,-12.8 -10.2,-22.5 -22.5,-22.5h-274.4c-12.3,0 -22.5,10.2 -22.5,22.5z" id="path_2"/></svg>