<svg id="vector" xmlns="http://www.w3.org/2000/svg" width="128" height="128" viewBox="0 0 1024 1024"><path fill="#40ECCB" d="M773.9,301.9m-200,0a200,200 0,1 0,400.1 0,200 200,0 1,0 -400.1,0Z" id="path_0"/><path fill="#12B7F5" d="M924.5,706.3a24.3,24.3 0,0 1,-24.3 24.3h-145.8a24.4,24.4 0,0 0,-24.3 24.3,24.3 24.3,0 0,0 24.3,24.3h48.6a24.3,24.3 0,0 1,24.3 24.3,24.3 24.3,0 0,1 -24.3,24.3h-64.5A388.8,388.8 0,0 1,122.9 390.5h-48.6a24.3,24.3 0,0 1,0 -48.6h97.3a24.3,24.3 0,0 0,6.8 -47.6l0.8,-1H122.9a24.3,24.3 0,1 1,0 -48.6h101.6a388.8,388.8 0,0 1,619.5 437.2h56.3a24.3,24.3 0,0 1,24.1 24.3z" id="path_1"/><path fill="#FFFFFF" d="M294.5,575.7c-15.4,38.1 -18.3,74.1 -5.9,80.5 8.6,4.8 22.6,-5.9 35.5,-25.2a106.2,106.2 0,0 0,35.4 55.9c-18.8,7 -31.2,18.8 -31.2,31.6 0,21.5 33.3,39.2 74.1,39.2 37,0 67.6,-14 73.5,-32.8h8.6c5.9,18.8 36.5,32.8 73.6,32.8 41.3,0 74.1,-17.2 74.1,-39.2 0,-12.9 -12.3,-24.7 -31.1,-31.6a106.2,106.2 0,0 0,35.4 -55.9c12.9,19.4 26.3,30.1 35.4,25.2 12.9,-6.5 10.2,-43 -5.9,-80.5 -12.3,-29.5 -29,-51.6 -41.9,-56.3 0,-1.6 0.5,-3.8 0.5,-5.9a58.4,58.4 0,0 0,-8.6 -30.7v-2.2a32.1,32.1 0,0 0,-3.2 -14.5C609.7,389.1 560.3,327.7 480.3,327.7S350.9,389.1 347.6,466.2a32.1,32.1 0,0 0,-3.2 14.5v2.2a58,58 0,0 0,-8.6 30.7v5.9c-11.8,4.7 -29,26.2 -41.3,56.2z" id="path_2"/></svg>