<svg id="vector" xmlns="http://www.w3.org/2000/svg" width="32" height="32" viewBox="0 0 1024 1024"><path fill="#000000" d="M512,85.5c-235.5,0 -427,191 -426.5,427 0,224.3 176.1,411.6 399.9,425.5 154.6,9.7 298,-64 381.4,-188.9 7.7,-11.3 7.7,-26.1 -1,-36.9 -14.3,-18.4 -40.4,-16.4 -52.2,1.5 -67.1,99.8 -179.2,161.3 -301.6,161.3 -203.3,0 -367.6,-167.4 -362.5,-371.7 4.6,-191.5 159.7,-347.6 351.2,-353.8 196.6,-6.1 359.4,144.4 373.2,336.4 0.5,7.2 -7.2,11.8 -13.3,8.7l-37.9,-21.5c-15.9,-8.7 -35.8,-3.1 -44,13.3 -8.2,15.4 -1.5,34.8 13.8,43.5l96.3,54.3c20.5,11.3 45.6,-2 47.6,-25.1 1.5,-20 2.6,-35.3 2.6,-46.6C938.5,276.5 747.5,85.5 512,85.5z" id="path_0"/><path fill="#000000" d="M617.5,565.2h-68.1v-42.5h69.1c13.8,0 26.1,-8.2 30.2,-21.5 7.2,-22 -9.2,-42.5 -30.2,-42.5h-47.1L642.6,373.8c11.3,-13.3 10.8,-33.8 -2.6,-45.6 -13.8,-11.8 -34.3,-10.2 -45.6,3.6l-76.8,92.2 -76.3,-91.6c-11.3,-13.3 -31.2,-16.4 -45.1,-5.6 -14.3,11.3 -16.4,31.7 -4.6,45.6l71.7,86h-47.1c-21,0 -37.4,20.5 -30.2,42.5 4.1,12.8 16.9,21.5 30.2,21.5h69.1v42.5H417.3c-17.4,0 -32.8,13.3 -33.3,31.2 -0.5,17.9 13.8,32.8 31.7,32.8h69.1v41.5c0,17.4 13.3,32.8 31.2,33.3 17.9,0.5 32.8,-13.8 32.8,-31.7v-42.5h69.1c17.9,0 32.8,-14.8 31.7,-32.8 0.5,-17.4 -14.8,-31.2 -32.3,-31.2z" id="path_1"/></svg>