<svg id="vector" xmlns="http://www.w3.org/2000/svg" width="32" height="32" viewBox="0 0 1024 1024"><path fill="#000000" d="M821.2,85.5c65,0 117.2,52.7 117.2,117.2v149.5c0,65 -52.7,117.2 -117.2,117.2h-2c-10.8,0 -19.5,8.7 -19.5,19.5v417.8c0,26.1 -30.2,41.5 -51.2,25.6l-66,-49.7 -59.9,45.1c-15.4,11.3 -35.8,11.3 -51.2,0l-59.9,-45.1 -59.9,45.1c-15.4,11.3 -35.8,11.3 -51.2,0l-59.9,-45.1 -66,49.7c-21,15.9 -51.2,0.5 -51.2,-25.6L223.2,489c0,-10.8 -8.7,-19.5 -19.5,-19.5h-2c-64,0 -115.7,-50.7 -117.2,-114.2L84.5,202.8c0,-65 52.7,-117.2 117.2,-117.2h619.5zM725.5,298.5L298.5,298.5c-6.1,0 -10.8,4.6 -10.8,10.8v533.5l27.6,-21c15.4,-11.3 35.8,-11.3 51.2,0l59.9,45.1 59.9,-45.1c15.4,-11.3 35.8,-11.3 51.2,0l59.9,45.1 59.9,-45.1c15.4,-11.3 35.8,-11.3 51.2,0l27.6,21L736.3,309.2c0,-5.6 -5.1,-10.8 -10.8,-10.8zM543.7,588.8c17.9,0 32.8,14.8 31.7,32.8 -0.5,17.4 -15.9,31.2 -33.3,31.2L416.8,652.8c-17.4,0 -32.8,-13.3 -33.3,-31.2 -0.5,-17.9 13.8,-32.8 31.7,-32.8h128.5zM608.3,450.6c17.9,0 32.8,14.8 31.7,32.8 -0.5,17.4 -15.9,31.2 -33.3,31.2h-189.4c-17.4,0 -32.8,-13.3 -33.3,-31.2 -0.5,-17.9 13.8,-32.8 31.7,-32.8h192.5zM821.2,149.5L202.8,149.5c-29.7,0 -53.2,24.1 -53.2,53.2v149.5c0,29.7 24.1,53.2 53.2,53.2h2c10.8,0 19.5,-8.7 19.5,-19.5v-76.8c0,-41.5 33.3,-74.8 74.8,-74.8h426.5c41.5,0 74.8,33.3 74.8,74.8v76.3c0,10.8 8.7,19.5 19.5,19.5h2c28.7,0 52.2,-22.5 53.2,-51.2L875,217.6c-0.5,-30.2 -24.6,-60.9 -53.8,-68.1z" id="path_0"/></svg>