<svg id="vector" xmlns="http://www.w3.org/2000/svg" width="32" height="32" viewBox="0 0 1024 1024"><path fill="#000000" d="M835.1,588.8c6.7,-15.9 0,-35.3 -15.9,-41.5 -15.9,-6.7 -35.3,0 -41.5,15.9 -15.9,28.7 -79.9,45.1 -169.5,45.1 -19.5,0 -32.3,12.8 -32.3,32.3s12.8,31.7 32.3,31.7h9.7c82.9,0 185.3,-16.4 217.1,-83.5z" id="path_0"/><path fill="#000000" d="M905.7,438.3l-41.5,-15.9c-12.8,-182.3 -166.4,-329.7 -352.3,-329.7 -188.9,0 -342.5,150.5 -352.3,335.9l-19.5,12.8c-6.1,6.7 -12.8,15.9 -12.8,25.6v134.7c0,19.5 12.8,32.3 32.3,32.3s32.3,-12.8 32.3,-32.3V486.4l19.5,-12.8c6.7,-6.7 12.8,-15.9 12.8,-28.7 0,-160.3 128,-288.3 288.3,-288.3s288.3,128 288.3,288.3c0,12.8 9.7,25.6 22.5,28.7l41.5,15.9v109.1c0,19.5 12.8,32.3 32.3,32.3s32.3,-12.8 32.3,-32.3V463.9c-1,-9.2 -10.8,-22 -23.6,-25.6z" id="path_1"/><path fill="#000000" d="M867.8,918.5c-15.4,-79.4 -57.3,-145.9 -117.8,-192.5 -27.1,-21.5 -62,-30.7 -96.8,-29.2 -12.3,0.5 -24.1,1 -35.8,1h-9.7c-34.3,0 -58.4,-25.1 -57.9,-58.9 0.5,-31.7 27.6,-56.3 58.9,-56.3 23.6,0 44,-1 61.4,-3.1 49.2,-5.6 87,-45.1 90.6,-93.7 0.5,-9.2 1,-18.9 0.5,-28.7 -5.1,-128 -110.6,-231.9 -238.6,-235.5 -141.3,-4.1 -255,106 -255,246.3 0,86.5 44.5,160.3 112.1,204.8 -112.1,38.4 -195.1,128 -217.6,246.3 -3.1,15.9 6.1,35.3 25.6,38.4h653.3c20.5,-3.6 29.7,-23 26.6,-38.9z" id="path_2"/></svg>