<svg id="vector" xmlns="http://www.w3.org/2000/svg" width="32" height="32" viewBox="0 0 1024 1024"><path fill="#000000" d="M512,74.8c-241.2,0 -437.2,196.1 -437.2,437.2s196.1,437.2 437.2,437.2 437.2,-196.1 437.2,-437.2 -196.1,-437.2 -437.2,-437.2zM512,885.2c-204.8,0 -373.2,-168.4 -373.2,-373.2S307.2,138.8 512,138.8 885.2,307.2 885.2,512 716.8,885.2 512,885.2z" id="path_0"/><path fill="#000000" d="M702,382l-254,256L322,512c-12.8,-12.8 -32.3,-12.8 -45.1,0 -12.8,12.8 -12.8,32.3 0,45.1L426.5,706.6c6.7,6.7 14.8,8.7 23.6,8.7s16.9,-2 23.6,-8.7l277.5,-277.5c12.8,-12.8 12.8,-32.3 0,-45.1 -14.8,-12.8 -33.8,-17.4 -49.2,-2z" id="path_1"/></svg>