<svg id="vector" xmlns="http://www.w3.org/2000/svg" width="32" height="32" viewBox="0 0 1024 1024"><path fill="#000000" d="M797.5,752.3c62.1,-72.7 97.3,-165 97.3,-262.2 0,-223.6 -181.2,-404.7 -404.7,-404.7 -223.5,0 -404.7,181.2 -404.7,404.7 0,223.5 181.2,404.8 404.7,404.8a404.7,404.7 0,0 0,118.2 -17.5,32 32,0 0,0 -18.7,-61.2 340.7,340.7 0,0 1,-99.5 14.8c-188.2,-0 -340.7,-152.6 -340.7,-340.8 0,-188.2 152.6,-340.7 340.7,-340.7 188.2,0 340.8,152.6 340.8,340.7 0,89.3 -35.4,173.7 -97.1,237.3a37,37 0,0 0,0.4 51.9l150,150a32,32 0,0 0,45.3 -45.2L797.5,752.3z" id="path_0"/></svg>