<svg id="vector" xmlns="http://www.w3.org/2000/svg" width="32" height="32" viewBox="0 0 1024 1024"><path fill="#000000" d="M928.8,462.8c18.4,-19.5 20.5,-53.8 -0.5,-74.8 -8.7,-8.7 -19.5,-12.8 -29.7,-14.8l-221.7,-32.3c-8.2,-1 -15.4,-6.1 -18.9,-13.8l-98.8,-201.7c-6.7,-12.8 -16.9,-23.6 -29.7,-27.6 -5.6,-2 -11.3,-2.6 -16.9,-3.1 -5.6,0 -11.8,1 -16.9,3.1 -12.8,4.1 -23.6,14.8 -29.7,27.6L366.1,327.2c-3.6,7.2 -10.8,12.3 -18.9,13.8l-221.7,32.3c-10.8,2 -21.5,6.7 -29.7,14.8 -21.5,21.5 -19.5,55.3 0,74.8l161.3,157.2c5.6,5.6 8.7,13.8 7.2,22l-38.4,221.7c-2,10.8 0,23.6 6.7,34.3 12.8,25.6 47.1,36.4 72.7,21.5l195.6,-102.4c7.2,-3.6 15.9,-3.6 23,0l195.6,102.4c25.6,14.8 59.9,4.1 72.7,-21.5 6.7,-10.8 8.7,-23.6 6.7,-34.3l-38.4,-221.7c-1.5,-8.2 1,-16.4 7.2,-22l161.3,-157.2z" id="path_0"/></svg>