<svg id="vector" xmlns="http://www.w3.org/2000/svg" width="32" height="32" viewBox="0 0 1024 1024"><path fill="#000000" d="M926.2,406.5c-16.4,-16.9 -38.4,-26.1 -62,-26.6 -1,0 -3.1,-0.5 -6.1,-0.5 -6.7,-0.5 -18.4,-2 -32.8,-3.1 -9.7,-21.5 -21.5,-42.5 -35.3,-62l1.5,-3.1c8.2,-17.4 11.8,-25.6 13.3,-29.7v-0.5c25.1,-43 10.2,-98.8 -32.8,-123.4L694.8,112.6c-13.8,-8.2 -29.2,-12.3 -45.6,-12.3 -31.7,0 -62,16.9 -76.8,42.5 -1,1.5 -9.7,13.3 -23,32.3 -23.6,-2.6 -47.6,-2.6 -71.2,0 -12.8,-17.9 -18.4,-26.1 -21.5,-29.7l-0.5,-0.5c-16.4,-28.2 -46.1,-45.1 -78.3,-45.1 -15.9,0 -31.2,4.1 -45.1,11.8l-76.8,44c-21,12.3 -36.4,31.7 -42.5,55.8 -6.1,22.5 -3.1,46.1 7.7,65.5 1,2 7.7,17.4 17.9,39.4 -5.6,7.7 -10.8,15.9 -15.9,24.6 -6.1,10.8 -11.8,22 -16.4,33.3 -27.6,2.6 -37.9,3.6 -41.5,4.1 -49.7,0 -90.1,40.4 -90.1,90.1V558.1c0,24.6 9.7,47.6 26.6,64.5 16.4,16.9 37.9,25.6 60.4,25.6 0,0 18.9,2 47.6,4.6 8.7,18.4 18.9,36.4 31.2,53.2l-1,2c-10.8,23.6 -15.4,33.3 -17.4,38.9l-0.5,0.5c-11.8,20.5 -15.4,45.6 -9.2,68.6s21.5,43 42,55.3l77.3,45.1c13.8,7.7 29.2,12.3 45.6,12.3 31.7,0 62,-16.9 76.8,-42.5 1.5,-2 13.3,-17.9 28.2,-38.9 21,2 41.5,2 62,0.5 15.4,21.5 22.5,31.7 26.1,35.8v0.5c16.4,28.2 46.1,45.1 78.3,45.1 15.9,0 31.2,-4.1 45.1,-12.3l77.8,-44.5c21,-11.8 36.4,-31.7 42.5,-54.8 6.1,-23 3.6,-46.6 -7.7,-67.1 -1.5,-3.1 -7.7,-17.4 -17.9,-39.4 7.2,-9.2 13.8,-20 20.5,-31.2 5.1,-9.2 9.7,-17.9 13.3,-26.1 24.6,-2 35.3,-3.1 39.9,-4.1h0.5c49.7,0 90.1,-40.4 90.6,-90.1V470c-1,-23.6 -10.8,-46.6 -27.6,-63.5zM665.6,512c0,85 -68.6,153.6 -153.6,153.6s-153.6,-68.6 -153.6,-153.6 68.6,-153.6 153.6,-153.6 153.6,68.6 153.6,153.6z" id="path_0"/></svg>