<svg id="vector" xmlns="http://www.w3.org/2000/svg" width="32" height="32" viewBox="0 0 1024 1024"><path fill="#000000" d="M934.9,332.8c-11.8,-26.1 -42,-38.4 -68.6,-27.1l-153.1,65.5L553,169c-2.6,-3.6 -5.6,-6.1 -8.7,-8.7 -22.5,-17.9 -55.3,-13.8 -73.2,8.7L311.3,371.2 158.2,305.7c-9.7,-4.1 -21,-5.1 -31.2,-3.1 -28.2,5.6 -46.1,33.3 -40.4,61.4l89.1,431.1c10.8,52.2 56.8,89.6 110.1,89.6h452.6c53.2,0 99.3,-37.4 110.1,-89.6l89.6,-431.1c2,-10.8 1,-21.5 -3.1,-31.2zM388.1,684.5h257.5c17.9,0 31.7,14.3 31.7,32.3s-14.3,31.7 -31.7,31.7H388.1c-17.9,0 -31.7,-14.3 -31.7,-31.7 0,-17.9 14.3,-32.3 31.7,-32.3z" id="path_0"/></svg>