<svg id="vector" xmlns="http://www.w3.org/2000/svg" width="24" height="24" viewBox="0 0 48 48"><path fill="#000000" d="M24,44C29.523,44 34.523,41.761 38.142,38.142C41.761,34.523 44,29.523 44,24C44,18.477 41.761,13.477 38.142,9.858C34.523,6.239 29.523,4 24,4C18.477,4 13.477,6.239 9.858,9.858C6.239,13.477 4,18.477 4,24C4,29.523 6.239,34.523 9.858,38.142C13.477,41.761 18.477,44 24,44Z" fill-opacity="0" stroke-linejoin="round" stroke="#FFFFFF" stroke-width="4" id="path_0"/><path fill="#FFFFFF" d="M24,37C25.381,37 26.5,35.881 26.5,34.5C26.5,33.119 25.381,32 24,32C22.619,32 21.5,33.119 21.5,34.5C21.5,35.881 22.619,37 24,37Z" fill-rule="evenodd" id="path_1"/><path fill="#000000" d="M24,12V28" fill-opacity="0" stroke-linejoin="round" stroke-linecap="round" stroke="#FFFFFF" stroke-width="4" id="path_2"/></svg>