<svg id="vector" xmlns="http://www.w3.org/2000/svg" width="128" height="128" viewBox="0 0 1024 1024"><path fill="#89F1A8" d="M773.9,301.9m-200,0a200,200 0,1 0,400.1 0,200 200,0 1,0 -400.1,0Z" id="path_0"/><path fill="#1AAD19" d="M924.5,706.3a24.3,24.3 0,0 1,-24.3 24.3h-145.8a24.4,24.4 0,0 0,-24.3 24.3,24.3 24.3,0 0,0 24.3,24.3h48.6a24.3,24.3 0,0 1,24.3 24.3,24.3 24.3,0 0,1 -24.3,24.3h-64.5A388.8,388.8 0,0 1,122.9 390.5h-48.6a24.3,24.3 0,0 1,0 -48.6h97.3a24.3,24.3 0,0 0,6.8 -47.6l0.8,-1H122.9a24.3,24.3 0,1 1,0 -48.6h101.6a388.8,388.8 0,0 1,619.5 437.2h56.3a24.3,24.3 0,0 1,24.1 24.3z" id="path_1"/><path fill="#FFFFFF" d="M570.4,443.2h6.1a8.7,8.7 0,0 0,8.8 -11.2c-22,-68.4 -99.3,-117.8 -186.9,-117.8C294.8,314.3 209.9,383.7 209.9,471.8c0,48.9 26.2,89.4 70.1,121.2a8.8,8.8 0,0 1,3.2 9.9l-10.2,29.8a8.7,8.7 0,0 0,12 10.5l44.5,-21.9a8.6,8.6 0,0 1,5.5 -0.8c22.3,4.4 40.6,8.8 63.1,8.8h7a8.7,8.7 0,0 0,8 -10.5,133.1 133.1,0 0,1 -3.2,-28.8c0,-80.9 70.7,-146.5 160.2,-146.5zM469,393a23.1,23.1 0,1 1,0 46.1c-14.2,0 -28.3,-9.3 -28.3,-23.1s14.1,-22.9 28.3,-22.9zM337.2,439.1c-14.1,0 -28.4,-9.3 -28.4,-23.1s14.2,-23.1 28.4,-23.1a23.1,23.1 0,1 1,0 46.1zM742.4,587.6c0,-74 -75.4,-134.3 -160.1,-134.3 -89.7,0 -160.3,60.4 -160.3,134.3S492.6,721.9 582.3,721.9a227,227 0,0 0,53.3 -8.4,8.7 8.7,0 0,1 6.2,0.8l30.2,16.2a8.7,8.7 0,0 0,12.4 -10.2l-6.2,-20.5a8.7,8.7 0,0 1,3.1 -9.4C716.8,663.1 742.4,627.5 742.4,587.5zM530.3,564.4a18.5,18.5 0,1 1,0 -37.1c14.3,0 23.6,9.3 23.6,18.5s-9.3,18.5 -23.6,18.5zM634,564.4a18.5,18.5 0,1 1,0 -37.1c14.1,0 23.6,9.3 23.6,18.5s-9.4,18.5 -23.6,18.5z" id="path_2"/></svg>